<svg id="Group_37231" data-name="Group 37231" xmlns="http://www.w3.org/2000/svg" xmlns:xlink="http://www.w3.org/1999/xlink" width="111.786" height="48.793" viewBox="0 0 111.786 48.793">
  <defs>
    <clipPath id="clip-path">
      <rect id="Rectangle_23148" data-name="Rectangle 23148" width="111.786" height="48.793" fill="none"/>
    </clipPath>
  </defs>
  <path id="Path_78395" data-name="Path 78395" d="M39.191,27.528v5.5H25.249v-5.5h4.275V16.6L25.249,18.4V12.193l5.971-2.579h4.139V27.528Z" transform="translate(4.938 1.88)" fill="#9900e0"/>
  <g id="Group_37295" data-name="Group 37295">
    <g id="Group_37294" data-name="Group 37294" clip-path="url(#clip-path)">
      <path id="Path_78396" data-name="Path 78396" d="M54.956,25.527a7.91,7.91,0,0,1-7.908,7.911c-.115,0-.228,0-.343-.007a7.861,7.861,0,0,1-8.2-7.5c-.006-.134-.008-.269-.007-.4h5.977a2.24,2.24,0,1,0,2.241-2.307,2.43,2.43,0,0,0-1.793.814H38.74l1.221-14.42H53.429v5.5H45.286L45.047,18a6.6,6.6,0,0,1,2.238-.408A7.64,7.64,0,0,1,54.958,25.2c0,.11,0,.221-.006.331" transform="translate(7.529 1.88)" fill="#9900e0"/>
      <path id="Path_78397" data-name="Path 78397" d="M82.206,33.024H76.37V15.114H71.318v17.91H65.484V15.114H60.425v17.91H54.59V9.614H82.207Z" transform="translate(10.676 1.88)" fill="#9900e0"/>
      <path id="Path_78398" data-name="Path 78398" d="M41.393,31.2v5.5H27.45V31.2h4.275V20.275L27.45,22.068V15.863l5.971-2.579H37.56V31.2Z" transform="translate(5.369 2.598)" fill="#0cfff8"/>
      <path id="Path_78399" data-name="Path 78399" d="M57.158,29.2a7.91,7.91,0,0,1-7.908,7.911c-.115,0-.228,0-.343-.007a7.861,7.861,0,0,1-8.2-7.5c-.006-.134-.008-.269-.007-.4h5.977a2.24,2.24,0,1,0,2.239-2.307,2.432,2.432,0,0,0-1.793.814H40.942l1.221-14.42H55.631v5.5H47.488l-.239,2.883a6.6,6.6,0,0,1,2.238-.408,7.64,7.64,0,0,1,7.673,7.609c0,.11,0,.221-.006.331" transform="translate(7.959 2.598)" fill="#0cfff8"/>
      <path id="Path_78400" data-name="Path 78400" d="M84.408,36.694H78.572V18.784H73.52v17.91H67.686V18.784H62.627v17.91H56.792V13.284H84.409Z" transform="translate(11.107 2.598)" fill="#0cfff8"/>
      <path id="Path_78401" data-name="Path 78401" d="M39.925,29.73v5.5H25.983v-5.5h4.275V18.807L25.983,20.6V14.4l5.971-2.579h4.139V29.73Z" transform="translate(5.082 2.311)" fill="#fff"/>
      <path id="Path_78402" data-name="Path 78402" d="M39.925,29.73v5.5H25.983v-5.5h4.275V18.807L25.983,20.6V14.4l5.971-2.579h4.139V29.73Z" transform="translate(5.082 2.311)" fill="none" stroke="#000" stroke-width="1.5"/>
      <path id="Path_78403" data-name="Path 78403" d="M55.689,27.729a7.909,7.909,0,0,1-7.906,7.911c-.115,0-.228,0-.343-.007a7.86,7.86,0,0,1-8.2-7.5c-.006-.134-.008-.269-.007-.4h5.977a2.24,2.24,0,1,0,2.239-2.307,2.432,2.432,0,0,0-1.793.814H39.473l1.221-14.42H54.162v5.5H46.02L45.781,20.2a6.594,6.594,0,0,1,2.238-.408A7.64,7.64,0,0,1,55.692,27.4c0,.11,0,.221-.006.331" transform="translate(7.672 2.311)" fill="#fff"/>
      <path id="Path_78404" data-name="Path 78404" d="M55.689,27.729a7.909,7.909,0,0,1-7.906,7.911c-.115,0-.228,0-.343-.007a7.86,7.86,0,0,1-8.2-7.5c-.006-.134-.008-.269-.007-.4h5.977a2.24,2.24,0,1,0,2.239-2.307,2.432,2.432,0,0,0-1.793.814H39.473l1.221-14.42H54.162v5.5H46.02L45.781,20.2a6.594,6.594,0,0,1,2.238-.408A7.64,7.64,0,0,1,55.695,27.4C55.695,27.508,55.693,27.618,55.689,27.729Z" transform="translate(7.672 2.311)" fill="none" stroke="#000" stroke-width="1.5"/>
      <path id="Path_78405" data-name="Path 78405" d="M82.94,35.226H77.1V17.316H72.052v17.91H66.218V17.316H61.159v17.91H55.324V11.816H82.941Z" transform="translate(10.82 2.311)" fill="#fff"/>
      <path id="Path_78406" data-name="Path 78406" d="M82.94,35.226H77.1V17.316H72.052v17.91H66.218V17.316H61.159v17.91H55.324V11.816H82.941Z" transform="translate(10.82 2.311)" fill="none" stroke="#000" stroke-width="1.5"/>
      <path id="Path_78407" data-name="Path 78407" d="M17.143,33.616v2.136H15.589V33.616c-4.376-.338-7.666-3.392-7.666-7.4h6a2.262,2.262,0,0,0,1.656,2.1V24.355c-.2-.068-.408-.1-.611-.17-3.29-.849-6.717-2.85-6.717-7.4,0-3.8,3.122-6.683,7.328-6.988V7.629h1.554V9.8c4.241.338,7.361,3.257,7.361,7.09H18.535A1.912,1.912,0,0,0,17.143,15.1v3.766l.717.2c3.427.916,6.989,2.578,6.989,7.293,0,3.969-3.291,6.955-7.7,7.26M15.594,18.252V15.059a1.642,1.642,0,0,0-1.357,1.492c0,.78.508,1.289,1.357,1.7m3.257,8.481c0-.848-.678-1.425-1.7-1.866v3.529a1.873,1.873,0,0,0,1.7-1.662" transform="translate(1.55 1.492)" fill="#9900e0"/>
      <path id="Path_78408" data-name="Path 78408" d="M19.345,37.285v2.136H17.791V37.285c-4.376-.338-7.667-3.392-7.667-7.4h6a2.263,2.263,0,0,0,1.658,2.1V28.024c-.2-.068-.408-.1-.611-.17-3.29-.849-6.717-2.85-6.717-7.4,0-3.8,3.122-6.683,7.328-6.988V11.3h1.554V13.47c4.241.338,7.361,3.257,7.361,7.09H20.737a1.912,1.912,0,0,0-1.392-1.793v3.766l.717.2c3.427.916,6.989,2.578,6.989,7.293,0,3.969-3.291,6.955-7.7,7.26M17.8,21.921V18.729a1.642,1.642,0,0,0-1.357,1.492c0,.78.508,1.289,1.357,1.7M21.053,30.4c0-.848-.678-1.425-1.7-1.866V32.06a1.873,1.873,0,0,0,1.7-1.662" transform="translate(1.98 2.209)" fill="#0cfff8"/>
      <path id="Path_78409" data-name="Path 78409" d="M17.877,35.817v2.136H16.323V35.817c-4.376-.338-7.667-3.392-7.667-7.4h6a2.263,2.263,0,0,0,1.658,2.1V26.556c-.2-.068-.408-.1-.611-.17-3.29-.849-6.717-2.85-6.717-7.4,0-3.8,3.122-6.683,7.328-6.988V9.83h1.554V12c4.241.338,7.361,3.257,7.361,7.09H19.269A1.912,1.912,0,0,0,17.877,17.3v3.766l.717.2c3.427.916,6.989,2.578,6.989,7.293,0,3.969-3.291,6.955-7.7,7.26M16.328,20.453V17.261a1.642,1.642,0,0,0-1.357,1.492c0,.78.508,1.289,1.357,1.7m3.257,8.481c0-.848-.678-1.425-1.7-1.866v3.529a1.873,1.873,0,0,0,1.7-1.662" transform="translate(1.693 1.922)" fill="#fff"/>
      <path id="Path_78410" data-name="Path 78410" d="M17.877,35.817v2.136H16.323V35.817c-4.376-.338-7.667-3.392-7.667-7.4h6a2.263,2.263,0,0,0,1.658,2.1V26.556c-.2-.068-.408-.1-.611-.17-3.29-.849-6.717-2.85-6.717-7.4,0-3.8,3.122-6.683,7.328-6.988V9.83h1.554V12c4.241.338,7.361,3.257,7.361,7.09H19.269A1.912,1.912,0,0,0,17.877,17.3v3.766l.717.2c3.427.916,6.989,2.578,6.989,7.293C25.579,32.527,22.288,35.511,17.877,35.817ZM16.323,20.449V17.261a1.642,1.642,0,0,0-1.357,1.492c0,.78.5,1.29,1.352,1.7Zm3.257,8.481c0-.848-.678-1.425-1.7-1.866v3.528a1.873,1.873,0,0,0,1.692-1.662Z" transform="translate(1.693 1.922)" fill="none" stroke="#000" stroke-width="1.5"/>
      <path id="Path_78411" data-name="Path 78411" d="M14.365,21.423.079,21.066l.114-4.5,14.316.359Z" transform="translate(0.015 3.24)" fill="#9900e0"/>
      <path id="Path_78412" data-name="Path 78412" d="M60.481,35.58l10.871.273.087-3.422-10.892-.273Z" transform="translate(11.829 6.289)" fill="#9900e0"/>
      <rect id="Rectangle_23109" data-name="Rectangle 23109" width="0.858" height="0.859" transform="matrix(0.026, -1, 1, 0.026, 61.792, 42.915)" fill="#0f0f0f"/>
      <rect id="Rectangle_23110" data-name="Rectangle 23110" width="2.122" height="1.94" transform="translate(87.74 39.243) rotate(-88.579)" fill="#0f0f0f"/>
      <rect id="Rectangle_23111" data-name="Rectangle 23111" width="1.457" height="1.455" transform="matrix(0.025, -1, 1, 0.025, 102.604, 33.606)" fill="#83ffe7"/>
      <rect id="Rectangle_23112" data-name="Rectangle 23112" width="0.912" height="0.912" transform="matrix(0.024, -1, 1, 0.024, 67.653, 45.098)" fill="#83ffe7"/>
      <rect id="Rectangle_23113" data-name="Rectangle 23113" width="0.912" height="0.912" transform="translate(3.092 17.6) rotate(-88.649)" fill="#83ffe7"/>
      <path id="Path_78413" data-name="Path 78413" d="M79.43,30.687l2.64.067.02-.857-2.64-.067Z" transform="translate(15.534 5.834)" fill="#0f0f0f"/>
      <rect id="Rectangle_23114" data-name="Rectangle 23114" width="2.156" height="2.159" transform="translate(40.527 48.739) rotate(-88.57)" fill="#0f0f0f"/>
      <path id="Path_78414" data-name="Path 78414" d="M46.094,37.319l-7.7-.192.039-1.541,7.722.192Z" transform="translate(7.508 6.959)" fill="#9900e0"/>
      <rect id="Rectangle_23115" data-name="Rectangle 23115" width="2.851" height="2.852" transform="matrix(0.025, -1, 1, 0.025, 42.47, 41.699)" fill="#9900e0"/>
      <path id="Path_78415" data-name="Path 78415" d="M16.64,32.644,0,32.228l3.211-3.755,13.541.34Z" transform="translate(0 5.568)" fill="#0f0f0f"/>
      <rect id="Rectangle_23116" data-name="Rectangle 23116" width="4.084" height="5.699" transform="matrix(0.025, -1, 1, 0.025, 45.944, 16.369)" fill="#0f0f0f"/>
      <rect id="Rectangle_23117" data-name="Rectangle 23117" width="3.102" height="3.101" transform="translate(31.314 24.044) rotate(-88.564)" fill="#83ffe7"/>
      <rect id="Rectangle_23118" data-name="Rectangle 23118" width="1.81" height="1.809" transform="translate(31.261 36.966) rotate(-88.6)" fill="#83ffe7"/>
      <rect id="Rectangle_23119" data-name="Rectangle 23119" width="3.136" height="3.135" transform="matrix(0.025, -1, 1, 0.025, 56.825, 42.543)" fill="#9900e0"/>
      <rect id="Rectangle_23120" data-name="Rectangle 23120" width="4.084" height="1.607" transform="translate(43.279 16.352) rotate(-88.541)" fill="#0f0f0f"/>
      <rect id="Rectangle_23121" data-name="Rectangle 23121" width="2.476" height="8.951" transform="matrix(0.025, -1, 1, 0.025, 39.624, 23.658)" fill="#83ffe7"/>
      <rect id="Rectangle_23122" data-name="Rectangle 23122" width="1.126" height="1.127" transform="translate(82.687 11.306) rotate(-88.602)" fill="#0f0f0f"/>
      <rect id="Rectangle_23123" data-name="Rectangle 23123" width="2.793" height="2.55" transform="translate(67.433 2.792) rotate(-88.577)" fill="#0f0f0f"/>
      <rect id="Rectangle_23124" data-name="Rectangle 23124" width="2.793" height="2.55" transform="translate(3.427 31.517) rotate(-88.577)" fill="#0f0f0f"/>
      <rect id="Rectangle_23125" data-name="Rectangle 23125" width="1.914" height="1.914" transform="matrix(0.025, -1, 1, 0.025, 59.277, 17.325)" fill="#83ffe7"/>
      <rect id="Rectangle_23126" data-name="Rectangle 23126" width="3.53" height="3.532" transform="translate(81.116 16.143) rotate(-88.564)" fill="#0f0f0f"/>
      <rect id="Rectangle_23127" data-name="Rectangle 23127" width="1.126" height="3.472" transform="translate(61.748 6.619) rotate(-88.601)" fill="#0f0f0f"/>
      <path id="Path_78416" data-name="Path 78416" d="M92.689,28.78l-12.654-.317.092-3.706,12.673.317Z" transform="translate(15.653 4.841)" fill="#0f0f0f"/>
      <rect id="Rectangle_23128" data-name="Rectangle 23128" width="3.595" height="3.285" transform="matrix(0.025, -1, 1, 0.025, 68.365, 36.349)" fill="#0f0f0f"/>
      <rect id="Rectangle_23129" data-name="Rectangle 23129" width="2.832" height="2.833" transform="translate(99.267 28.074) rotate(-88.573)" fill="#0f0f0f"/>
      <rect id="Rectangle_23130" data-name="Rectangle 23130" width="2.464" height="2.467" transform="matrix(0.025, -1, 1, 0.025, 92.044, 42.758)" fill="#83ffe7"/>
      <rect id="Rectangle_23131" data-name="Rectangle 23131" width="2.464" height="2.466" transform="matrix(0.025, -1, 1, 0.025, 4.782, 42.675)" fill="#83ffe7"/>
      <rect id="Rectangle_23132" data-name="Rectangle 23132" width="4.549" height="4.549" transform="translate(107.125 38.946) rotate(-88.57)" fill="#9900e0"/>
      <rect id="Rectangle_23133" data-name="Rectangle 23133" width="2.832" height="2.833" transform="translate(95.448 15.654) rotate(-88.573)" fill="#0f0f0f"/>
      <rect id="Rectangle_23134" data-name="Rectangle 23134" width="2.465" height="2.468" transform="translate(81.03 30.091) rotate(-88.583)" fill="#83ffe7"/>
      <rect id="Rectangle_23135" data-name="Rectangle 23135" width="3.078" height="14.288" transform="translate(93.081 23.595) rotate(-88.554)" fill="#83ffe7"/>
      <path id="Path_78417" data-name="Path 78417" d="M53.619,15.1l10.123.252.05-2.025-10.144-.255Z" transform="translate(10.487 2.557)" fill="#9900e0"/>
      <rect id="Rectangle_23136" data-name="Rectangle 23136" width="1.626" height="1.625" transform="translate(72.888 3.486) rotate(-88.568)" fill="#9900e0"/>
      <rect id="Rectangle_23137" data-name="Rectangle 23137" width="3.746" height="3.746" transform="matrix(0.025, -1, 1, 0.025, 32.572, 10.682)" fill="#9900e0"/>
      <rect id="Rectangle_23138" data-name="Rectangle 23138" width="4.548" height="4.548" transform="matrix(0.025, -1, 1, 0.025, 36.973, 41.36)" fill="#9900e0"/>
      <rect id="Rectangle_23139" data-name="Rectangle 23139" width="1.444" height="1.442" transform="translate(59.394 37.694) rotate(-88.529)" fill="#9900e0"/>
      <rect id="Rectangle_23140" data-name="Rectangle 23140" width="2.46" height="2.461" transform="translate(51.862 10.289) rotate(-88.58)" fill="#83ffe7"/>
      <rect id="Rectangle_23141" data-name="Rectangle 23141" width="2.46" height="2.461" transform="translate(26.016 11.316) rotate(-88.58)" fill="#83ffe7"/>
      <rect id="Rectangle_23142" data-name="Rectangle 23142" width="1.67" height="16.473" transform="translate(44.867 20.645) rotate(-88.564)" fill="#0f0f0f"/>
      <rect id="Rectangle_23143" data-name="Rectangle 23143" width="1.804" height="1.805" transform="translate(77.247 25.628) rotate(-88.596)" fill="#83ffe7"/>
      <path id="Path_78418" data-name="Path 78418" d="M91.236,31.524,74.221,31l.05-1.991,17.05.526Z" transform="translate(14.516 5.673)" fill="#9900e0"/>
      <rect id="Rectangle_23144" data-name="Rectangle 23144" width="1.72" height="7.986" transform="translate(95.686 19.088) rotate(-88.526)" fill="#83ffe7"/>
      <rect id="Rectangle_23145" data-name="Rectangle 23145" width="3.53" height="3.532" transform="translate(74.552 10.028) rotate(-88.564)" fill="#0f0f0f"/>
      <rect id="Rectangle_23146" data-name="Rectangle 23146" width="3.53" height="3.532" transform="translate(12.104 10.028) rotate(-88.564)" fill="#0f0f0f"/>
      <rect id="Rectangle_23147" data-name="Rectangle 23147" width="4.549" height="4.549" transform="translate(4.978 14.486) rotate(-88.569)" fill="#9900e0"/>
    </g>
  </g>
</svg>
