<svg xmlns="http://www.w3.org/2000/svg" xmlns:xlink="http://www.w3.org/1999/xlink" width="36.852" height="36.126" viewBox="0 0 36.852 36.126">
  <defs>
    <clipPath id="clip-path">
      <rect id="Rectangle_17322" data-name="Rectangle 17322" width="36.852" height="36.126" fill="#fff"/>
    </clipPath>
  </defs>
  <g id="Group_21118" data-name="Group 21118" transform="translate(0 0)">
    <g id="Group_21116" data-name="Group 21116" transform="translate(0 0)">
      <g id="Group_21115" data-name="Group 21115" clip-path="url(#clip-path)">
        <path id="Path_28911" data-name="Path 28911" d="M31.852,34.155H30.224l-.465,1.706a3.677,3.677,0,0,1-3.45,2.713,2.576,2.576,0,0,1-2.132-1.008,2.758,2.758,0,0,1-.426-2.4l.271-1.008H18.789l-.465,1.706a3.723,3.723,0,0,1-3.488,2.713A2.628,2.628,0,0,1,12.7,37.566a2.758,2.758,0,0,1-.426-2.4l.271-1.008H10.843A6.322,6.322,0,0,0,4.99,38.768L.183,56.482a4.193,4.193,0,0,0,.659,3.8A4.136,4.136,0,0,0,4.175,61.87H6.54v1.047a5.012,5.012,0,0,0,5,5H31.851a5.012,5.012,0,0,0,5-5V39.156a5.013,5.013,0,0,0-5-5ZM4.214,58.846a1.13,1.13,0,0,1-.93-.388A1.19,1.19,0,0,1,3.168,57.3L7.122,42.489h24.11l-3.76,14.032a3.348,3.348,0,0,1-2.946,2.364H4.214Zm29.614,4.07a1.985,1.985,0,0,1-1.977,1.977H11.579A1.985,1.985,0,0,1,9.6,62.917V61.87H24.526a6.322,6.322,0,0,0,5.853-4.613l3.45-12.83Z" transform="translate(0 -31.791)" fill="#fff"/>
        <path id="Path_28912" data-name="Path 28912" d="M197.442,5.388a2.271,2.271,0,0,0,2.093-1.667l.543-2.054A1.239,1.239,0,0,0,198.876,0a2.271,2.271,0,0,0-2.093,1.667l-.543,2.054a1.25,1.25,0,0,0,1.2,1.667" transform="translate(-182.607)" fill="#fff"/>
        <path id="Path_28913" data-name="Path 28913" d="M362.686,5.388a2.271,2.271,0,0,0,2.093-1.667l.543-2.054A1.239,1.239,0,0,0,364.12,0a2.271,2.271,0,0,0-2.093,1.667l-.581,2.054A1.257,1.257,0,0,0,362.686,5.388Z" transform="translate(-336.377)" fill="#fff"/>
        <path id="Path_28914" data-name="Path 28914" d="M201.585,286.157h-3.6a.673.673,0,0,0-.581.426l-.7,2.636a.312.312,0,0,0,.31.426h3.6a.673.673,0,0,0,.581-.426l.7-2.636a.312.312,0,0,0-.31-.426" transform="translate(-183.067 -266.35)" fill="#fff"/>
        <path id="Path_28915" data-name="Path 28915" d="M109.745,286.157h-3.6a.673.673,0,0,0-.581.426l-.7,2.636a.312.312,0,0,0,.31.426h3.6a.673.673,0,0,0,.581-.426l.7-2.636a.3.3,0,0,0-.31-.426" transform="translate(-97.584 -266.35)" fill="#fff"/>
        <path id="Path_28916" data-name="Path 28916" d="M293.417,286.157h-3.6a.673.673,0,0,0-.581.426l-.7,2.636a.312.312,0,0,0,.31.426h3.6a.673.673,0,0,0,.581-.426l.7-2.636A.311.311,0,0,0,293.417,286.157Z" transform="translate(-268.543 -266.35)" fill="#fff"/>
        <path id="Path_28917" data-name="Path 28917" d="M222.865,206.077h-3.6a.673.673,0,0,0-.581.426l-.7,2.636a.312.312,0,0,0,.31.426h3.6a.673.673,0,0,0,.581-.426l.7-2.636a.3.3,0,0,0-.31-.426" transform="translate(-202.875 -191.813)" fill="#fff"/>
        <path id="Path_28918" data-name="Path 28918" d="M131.585,206.077h-3.6a.673.673,0,0,0-.581.426l-.7,2.636a.312.312,0,0,0,.31.426h3.6a.672.672,0,0,0,.581-.426l.7-2.636a.312.312,0,0,0-.31-.426" transform="translate(-117.912 -191.813)" fill="#fff"/>
        <path id="Path_28919" data-name="Path 28919" d="M310.642,210.127h3.605a.673.673,0,0,0,.581-.426l.7-2.636a.312.312,0,0,0-.31-.426h-3.6a.672.672,0,0,0-.581.426l-.7,2.636A.307.307,0,0,0,310.642,210.127Z" transform="translate(-288.83 -192.336)" fill="#fff"/>
      </g>
    </g>
  </g>
</svg>
