<svg xmlns="http://www.w3.org/2000/svg" width="88.551" height="88.565" viewBox="0 0 88.551 88.565">
  <g id="Group_37184" data-name="Group 37184" transform="translate(-1104.628 -2136.033)">
    <path id="Path_78300" data-name="Path 78300" d="M61.236,59.435c0,12.758-10.787,22.551-25.311,22.551-14.3,0-25.2-9.793-25.2-22.551A21.038,21.038,0,0,1,21.07,41.274a19.98,19.98,0,0,1-8.8-16.611c0-12,10.012-21.234,23.657-21.234,13.753,0,23.77,9.237,23.77,21.234A19.68,19.68,0,0,1,50.78,41.274,20.913,20.913,0,0,1,61.236,59.435M45.718,57.894c0-5.286-4.18-9.354-9.793-9.354a9.409,9.409,0,1,0,0,18.815c5.613,0,9.793-4.068,9.793-9.461M27.893,26.2a7.9,7.9,0,0,0,8.032,8.144,8.145,8.145,0,1,0,0-16.288A7.834,7.834,0,0,0,27.893,26.2" transform="translate(1104.628 2136.033)" fill="#9900e0"/>
    <path id="Path_78301" data-name="Path 78301" d="M65.236,62.435c0,12.758-10.787,22.551-25.311,22.551-14.3,0-25.2-9.793-25.2-22.551A21.038,21.038,0,0,1,25.07,44.274a19.98,19.98,0,0,1-8.8-16.611c0-12,10.012-21.234,23.657-21.234,13.753,0,23.77,9.237,23.77,21.234A19.68,19.68,0,0,1,54.78,44.274,20.913,20.913,0,0,1,65.236,62.435M49.718,60.894c0-5.286-4.18-9.354-9.793-9.354a9.409,9.409,0,1,0,0,18.815c5.613,0,9.793-4.068,9.793-9.461M31.893,29.2a7.9,7.9,0,0,0,8.032,8.144,8.145,8.145,0,1,0,0-16.288A7.834,7.834,0,0,0,31.893,29.2" transform="translate(1104.628 2136.033)" fill="#0cfff8"/>
    <path id="Path_78302" data-name="Path 78302" d="M63.236,61.435c0,12.758-10.787,22.551-25.311,22.551-14.3,0-25.2-9.793-25.2-22.551A21.038,21.038,0,0,1,23.07,43.274a19.98,19.98,0,0,1-8.8-16.611c0-12,10.012-21.234,23.657-21.234,13.753,0,23.77,9.237,23.77,21.234A19.68,19.68,0,0,1,52.78,43.274,20.913,20.913,0,0,1,63.236,61.435M47.718,59.894c0-5.286-4.18-9.354-9.793-9.354a9.409,9.409,0,1,0,0,18.815c5.613,0,9.793-4.068,9.793-9.461M29.893,28.2a7.9,7.9,0,0,0,8.032,8.144,8.145,8.145,0,1,0,0-16.288A7.834,7.834,0,0,0,29.893,28.2" transform="translate(1104.628 2136.033)" fill="#fff"/>
    <path id="Path_78303" data-name="Path 78303" d="M63.236,61.435c0,12.758-10.787,22.551-25.311,22.551-14.3,0-25.2-9.793-25.2-22.551A21.038,21.038,0,0,1,23.07,43.274a19.98,19.98,0,0,1-8.8-16.611c0-12,10.012-21.234,23.657-21.234,13.753,0,23.77,9.237,23.77,21.234A19.68,19.68,0,0,1,52.78,43.274,20.913,20.913,0,0,1,63.236,61.435ZM47.718,59.894c0-5.286-4.18-9.354-9.793-9.354a9.409,9.409,0,1,0,0,18.815C43.538,69.355,47.718,65.287,47.718,59.894ZM29.893,28.2a7.9,7.9,0,0,0,8.032,8.144,8.145,8.145,0,1,0,0-16.288A7.834,7.834,0,0,0,29.893,28.2Z" transform="translate(1104.628 2136.033)" fill="none" stroke="#000" stroke-width="1.5"/>
    <path id="Path_78304" data-name="Path 78304" d="M25.021,31.762l-16.28-.408.129-5.125,16.314.409Z" transform="translate(1104.628 2136.033)" fill="#9900e0"/>
    <rect id="Rectangle_22902" data-name="Rectangle 22902" width="3.542" height="4.942" transform="matrix(0.025, -1, 1, 0.025, 1168.023, 2217.279)" fill="#0f0f0f"/>
    <path id="Path_78305" data-name="Path 78305" d="M44.533,83.506l12.389.31.1-3.9-12.413-.31Z" transform="translate(1104.628 2136.033)" fill="#9900e0"/>
    <rect id="Rectangle_22903" data-name="Rectangle 22903" width="3.544" height="1.394" transform="translate(1173.88 2217.469) rotate(-88.626)" fill="#0f0f0f"/>
    <rect id="Rectangle_22904" data-name="Rectangle 22904" width="1.416" height="1.417" transform="translate(1152.023 2224.563) rotate(-88.544)" fill="#83ffe7"/>
    <rect id="Rectangle_22905" data-name="Rectangle 22905" width="0.976" height="0.978" transform="matrix(0.026, -1, 1, 0.026, 1146.1, 2204.027)" fill="#0f0f0f"/>
    <rect id="Rectangle_22906" data-name="Rectangle 22906" width="2.419" height="2.212" transform="translate(1149.082 2209.455) rotate(-88.579)" fill="#0f0f0f"/>
    <rect id="Rectangle_22907" data-name="Rectangle 22907" width="1.659" height="1.659" transform="matrix(0.025, -1, 1, 0.025, 1174.34, 2206.512)" fill="#83ffe7"/>
    <rect id="Rectangle_22908" data-name="Rectangle 22908" width="1.039" height="1.039" transform="matrix(0.024, -1, 1, 0.024, 1153.313, 2219.648)" fill="#83ffe7"/>
    <rect id="Rectangle_22909" data-name="Rectangle 22909" width="3.061" height="3.061" transform="matrix(0.025, -1, 1, 0.025, 1145.169, 2208.229)" fill="#0f0f0f"/>
    <path id="Path_78306" data-name="Path 78306" d="M61,73.8l3.008.076.023-.977-3.008-.076Z" transform="translate(1104.628 2136.033)" fill="#0f0f0f"/>
    <rect id="Rectangle_22910" data-name="Rectangle 22910" width="2.457" height="2.459" transform="matrix(0.025, -1, 1, 0.025, 1124.809, 2216.998)" fill="#0f0f0f"/>
    <rect id="Rectangle_22911" data-name="Rectangle 22911" width="2.669" height="12.394" transform="translate(1116.449 2223.463) rotate(-88.561)" fill="#83ffe7"/>
    <path id="Path_78307" data-name="Path 78307" d="M28.943,75.112l-8.778-.22.045-1.756,8.8.22Z" transform="translate(1104.628 2136.033)" fill="#9900e0"/>
    <path id="Path_78308" data-name="Path 78308" d="M40.5,73.807l1.409.036.034-1.409L40.535,72.4Z" transform="translate(1104.628 2136.033)" fill="#9900e0"/>
    <rect id="Rectangle_22912" data-name="Rectangle 22912" width="3.249" height="3.249" transform="translate(1122.613 2205.928) rotate(-88.571)" fill="#9900e0"/>
    <path id="Path_78309" data-name="Path 78309" d="M10.221,18.757l14.4.361-2.788,3.323-11.716-.3Z" transform="translate(1104.628 2136.033)" fill="#0f0f0f"/>
    <path id="Path_78310" data-name="Path 78310" d="M76.166,68.07,57.206,67.6l3.66-4.279L76.3,63.7Z" transform="translate(1104.628 2136.033)" fill="#0f0f0f"/>
    <path id="Path_78311" data-name="Path 78311" d="M3.563,52.736l20.28.619-.082,3.957L3.407,56.693Z" transform="translate(1104.628 2136.033)" fill="#0f0f0f"/>
    <rect id="Rectangle_22913" data-name="Rectangle 22913" width="4.654" height="6.493" transform="translate(1107.665 2172.178) rotate(-88.572)" fill="#0f0f0f"/>
    <rect id="Rectangle_22914" data-name="Rectangle 22914" width="3.534" height="3.534" transform="translate(1109.198 2185.697) rotate(-88.573)" fill="#83ffe7"/>
    <rect id="Rectangle_22915" data-name="Rectangle 22915" width="2.063" height="2.062" transform="matrix(0.025, -1, 1, 0.025, 1111.308, 2197.246)" fill="#83ffe7"/>
    <rect id="Rectangle_22916" data-name="Rectangle 22916" width="3.572" height="3.571" transform="translate(1137.244 2209.168) rotate(-88.556)" fill="#9900e0"/>
    <rect id="Rectangle_22917" data-name="Rectangle 22917" width="4.654" height="1.831" transform="matrix(0.025, -1, 1, 0.025, 1104.628, 2172.158)" fill="#0f0f0f"/>
    <rect id="Rectangle_22918" data-name="Rectangle 22918" width="2.821" height="10.2" transform="translate(1116.488 2186.607) rotate(-88.558)" fill="#83ffe7"/>
    <rect id="Rectangle_22919" data-name="Rectangle 22919" width="1.283" height="1.283" transform="translate(1151.282 2137.316) rotate(-88.571)" fill="#0f0f0f"/>
    <rect id="Rectangle_22920" data-name="Rectangle 22920" width="3.183" height="2.906" transform="translate(1145.389 2144.209) rotate(-88.578)" fill="#0f0f0f"/>
    <rect id="Rectangle_22921" data-name="Rectangle 22921" width="2.18" height="2.18" transform="translate(1116.034 2143.684) rotate(-88.58)" fill="#83ffe7"/>
    <rect id="Rectangle_22922" data-name="Rectangle 22922" width="4.023" height="4.024" transform="matrix(0.025, -1, 1, 0.025, 1149.491, 2142.828)" fill="#0f0f0f"/>
    <rect id="Rectangle_22923" data-name="Rectangle 22923" width="1.283" height="3.956" transform="translate(1125.478 2148.568) rotate(-88.571)" fill="#0f0f0f"/>
    <path id="Path_78312" data-name="Path 78312" d="M63.747,44.686l-14.421-.361.1-4.223,14.444.361Z" transform="translate(1104.628 2136.033)" fill="#0f0f0f"/>
    <rect id="Rectangle_22924" data-name="Rectangle 22924" width="4.097" height="3.744" transform="translate(1109.15 2212.082) rotate(-88.573)" fill="#0f0f0f"/>
    <rect id="Rectangle_22925" data-name="Rectangle 22925" width="3.228" height="3.228" transform="translate(1176.04 2177.969) rotate(-88.562)" fill="#0f0f0f"/>
    <rect id="Rectangle_22926" data-name="Rectangle 22926" width="2.807" height="2.809" transform="matrix(0.025, -1, 1, 0.025, 1164.544, 2223.654)" fill="#83ffe7"/>
    <rect id="Rectangle_22927" data-name="Rectangle 22927" width="5.185" height="5.185" transform="translate(1174.366 2196.533) rotate(-88.563)" fill="#9900e0"/>
    <rect id="Rectangle_22928" data-name="Rectangle 22928" width="3.228" height="3.228" transform="translate(1169.914 2160.684) rotate(-88.562)" fill="#0f0f0f"/>
    <rect id="Rectangle_22929" data-name="Rectangle 22929" width="2.81" height="2.812" transform="translate(1174.6 2189.412) rotate(-88.572)" fill="#83ffe7"/>
    <rect id="Rectangle_22930" data-name="Rectangle 22930" width="3.508" height="16.283" transform="translate(1158.965 2171.48) rotate(-88.563)" fill="#83ffe7"/>
    <path id="Path_78313" data-name="Path 78313" d="M53.908,16.47l11.536.288L65.5,14.45,53.94,14.16Z" transform="translate(1104.628 2136.033)" fill="#9900e0"/>
    <rect id="Rectangle_22931" data-name="Rectangle 22931" width="1.853" height="1.851" transform="translate(1151.605 2145) rotate(-88.577)" fill="#9900e0"/>
    <rect id="Rectangle_22932" data-name="Rectangle 22932" width="4.268" height="4.268" transform="translate(1160.233 2145.967) rotate(-88.564)" fill="#9900e0"/>
    <rect id="Rectangle_22933" data-name="Rectangle 22933" width="5.183" height="5.183" transform="translate(1116.348 2205.541) rotate(-88.563)" fill="#9900e0"/>
    <rect id="Rectangle_22934" data-name="Rectangle 22934" width="1.644" height="1.644" transform="translate(1143.369 2198.076) rotate(-88.536)" fill="#9900e0"/>
    <rect id="Rectangle_22935" data-name="Rectangle 22935" width="2.804" height="2.804" transform="translate(1139.736 2166.637) rotate(-88.569)" fill="#83ffe7"/>
    <rect id="Rectangle_22936" data-name="Rectangle 22936" width="1.902" height="18.773" transform="translate(1124.148 2178.297) rotate(-88.554)" fill="#0f0f0f"/>
    <rect id="Rectangle_22937" data-name="Rectangle 22937" width="2.056" height="2.056" transform="translate(1136.221 2161.43) rotate(-88.578)" fill="#83ffe7"/>
    <path id="Path_78314" data-name="Path 78314" d="M57.7,57.074l-19.391-.6.057-2.269,19.43.6Z" transform="translate(1104.628 2136.033)" fill="#9900e0"/>
    <rect id="Rectangle_22938" data-name="Rectangle 22938" width="1.96" height="9.098" transform="translate(1156.838 2166.342) rotate(-88.538)" fill="#83ffe7"/>
    <rect id="Rectangle_22939" data-name="Rectangle 22939" width="5.185" height="5.185" transform="translate(1131.197 2188.287) rotate(-88.563)" fill="#9900e0"/>
    <rect id="Rectangle_22940" data-name="Rectangle 22940" width="4.023" height="4.024" transform="matrix(0.025, -1, 1, 0.025, 1147.219, 2162.889)" fill="#0f0f0f"/>
    <rect id="Rectangle_22941" data-name="Rectangle 22941" width="88.551" height="88.564" transform="translate(1104.628 2136.033)" fill="none"/>
  </g>
</svg>
