<svg xmlns="http://www.w3.org/2000/svg" xmlns:xlink="http://www.w3.org/1999/xlink" width="178.182" height="82.927" viewBox="0 0 178.182 82.927">
  <defs>
    <clipPath id="clip-path">
      <rect id="Rectangle_23089" data-name="Rectangle 23089" width="178.182" height="82.927" fill="none"/>
    </clipPath>
  </defs>
  <g id="Group_37192" data-name="Group 37192" transform="translate(0 0)">
    <path id="Path_78358" data-name="Path 78358" d="M34.8,42.87V52H11.63V42.87h7.1V24.717L11.63,27.7V17.385L21.553,13.1h6.879V42.87Z" transform="translate(5.33 6.004)" fill="#9900e0"/>
    <g id="Group_37193" data-name="Group 37193" transform="translate(0 0)">
      <g id="Group_37192-2" data-name="Group 37192" clip-path="url(#clip-path)">
        <path id="Path_78359" data-name="Path 78359" d="M57.031,39.545c0,7.5-5.921,13.135-13.7,13.135-7.836,0-13.644-5.636-13.644-13.135h9.922A3.723,3.723,0,1,0,43.33,35.71a4.043,4.043,0,0,0-2.988,1.353H30.081L32.11,13.1H54.494v9.135H40.963l-.4,4.791a10.951,10.951,0,0,1,3.72-.677c7.217,0,12.743,5.638,12.743,13.195" transform="translate(13.606 6.004)" fill="#9900e0"/>
        <path id="Path_78360" data-name="Path 78360" d="M97.5,52h-9.7V22.235H79.4V52h-9.7V22.235h-8.4V52h-9.7V13.1H97.5Z" transform="translate(23.654 6.005)" fill="#9900e0"/>
        <path id="Path_78361" data-name="Path 78361" d="M102.09,53.583v3.551H99.5V53.583c-7.273-.563-12.741-5.638-12.741-12.291h9.978A3.76,3.76,0,0,0,99.5,44.786V38.191c-.34-.114-.678-.171-1.015-.281C93.014,36.5,87.319,33.173,87.319,25.618,87.319,19.3,92.506,14.509,99.5,14V10.394h2.593V14c7.048.563,12.234,5.412,12.234,11.783H104.4a3.183,3.183,0,0,0-2.313-2.99v6.259l1.184.338c5.695,1.522,11.616,4.285,11.616,12.123,0,6.6-5.47,11.557-12.8,12.065M99.5,28.041v-5.3a2.73,2.73,0,0,0-2.255,2.481c0,1.3.844,2.142,2.255,2.818m5.413,14.1c0-1.409-1.127-2.368-2.82-3.1V44.9c1.636-.338,2.82-1.409,2.82-2.762" transform="translate(39.763 4.764)" fill="#9900e0"/>
        <path id="Path_78362" data-name="Path 78362" d="M37.8,47.87V57H14.63V47.87h7.1V29.717L14.63,32.7V22.385L24.553,18.1h6.879V47.87Z" transform="translate(6.705 8.296)" fill="#0cfff8"/>
        <path id="Path_78363" data-name="Path 78363" d="M60.031,44.545c0,7.5-5.921,13.135-13.7,13.135-7.836,0-13.644-5.636-13.644-13.135h9.923A3.723,3.723,0,1,0,46.33,40.71a4.043,4.043,0,0,0-2.988,1.353H33.081L35.11,18.1H57.494v9.135H43.963l-.4,4.791a10.951,10.951,0,0,1,3.72-.677c7.217,0,12.743,5.638,12.743,13.195" transform="translate(14.981 8.296)" fill="#0cfff8"/>
        <path id="Path_78364" data-name="Path 78364" d="M100.5,57h-9.7V27.235H82.4V57h-9.7V27.235h-8.4V57h-9.7V18.1h45.9Z" transform="translate(25.029 8.296)" fill="#0cfff8"/>
        <path id="Path_78365" data-name="Path 78365" d="M105.09,58.583v3.551H102.5V58.583c-7.273-.563-12.741-5.638-12.741-12.291h9.978a3.76,3.76,0,0,0,2.764,3.494V43.191c-.34-.114-.678-.171-1.015-.281C96.014,41.5,90.319,38.173,90.319,30.618,90.319,24.3,95.506,19.509,102.5,19V15.394h2.593V19c7.048.563,12.234,5.412,12.234,11.783H107.4a3.183,3.183,0,0,0-2.313-2.99v6.259l1.184.338c5.695,1.522,11.616,4.285,11.616,12.123,0,6.6-5.47,11.557-12.8,12.065M102.5,33.041v-5.3a2.73,2.73,0,0,0-2.255,2.481c0,1.295.844,2.142,2.255,2.818m5.413,14.1c0-1.409-1.127-2.368-2.82-3.1V49.9c1.636-.338,2.82-1.409,2.82-2.762" transform="translate(41.138 7.055)" fill="#0cfff8"/>
        <path id="Path_78366" data-name="Path 78366" d="M35.8,45.87V55H12.63V45.87h7.1V27.717L12.63,30.7V20.385L22.553,16.1h6.879V45.87Z" transform="translate(5.789 7.379)" fill="#fff"/>
        <path id="Path_78367" data-name="Path 78367" d="M35.8,45.87V55H12.63V45.87h7.1V27.717L12.63,30.7V20.385L22.553,16.1h6.879V45.87Z" transform="translate(5.789 7.379)" fill="none" stroke="#000" stroke-width="1.5"/>
        <path id="Path_78368" data-name="Path 78368" d="M58.031,42.545c0,7.5-5.921,13.135-13.7,13.135-7.836,0-13.644-5.636-13.644-13.135h9.922A3.723,3.723,0,1,0,44.33,38.71a4.043,4.043,0,0,0-2.988,1.353H31.081L33.11,16.1H55.494v9.135H41.963l-.4,4.791a10.951,10.951,0,0,1,3.72-.677c7.217,0,12.743,5.638,12.743,13.195" transform="translate(14.064 7.379)" fill="#fff"/>
        <path id="Path_78369" data-name="Path 78369" d="M58.031,42.545c0,7.5-5.921,13.135-13.7,13.135-7.836,0-13.644-5.636-13.644-13.135h9.922A3.723,3.723,0,1,0,44.33,38.71a4.043,4.043,0,0,0-2.988,1.353H31.081L33.11,16.1H55.494v9.135H41.963l-.4,4.791a10.951,10.951,0,0,1,3.72-.677C52.506,29.35,58.031,34.988,58.031,42.545Z" transform="translate(14.064 7.379)" fill="none" stroke="#000" stroke-width="1.5"/>
        <path id="Path_78370" data-name="Path 78370" d="M98.5,55h-9.7V25.235H80.4V55h-9.7V25.235h-8.4V55h-9.7V16.1H98.5Z" transform="translate(24.112 7.38)" fill="#fff"/>
        <path id="Path_78371" data-name="Path 78371" d="M98.5,55h-9.7V25.235H80.4V55h-9.7V25.235h-8.4V55h-9.7V16.1H98.5Z" transform="translate(24.112 7.38)" fill="none" stroke="#000" stroke-width="1.5"/>
        <path id="Path_78372" data-name="Path 78372" d="M103.09,56.583v3.551H100.5V56.583c-7.273-.563-12.741-5.638-12.741-12.291h9.978a3.76,3.76,0,0,0,2.764,3.494V41.191c-.34-.114-.678-.171-1.015-.281C94.014,39.5,88.319,36.173,88.319,28.618,88.319,22.3,93.506,17.509,100.5,17V13.394h2.593V17c7.048.563,12.234,5.412,12.234,11.783H105.4a3.183,3.183,0,0,0-2.313-2.99v6.259l1.184.338c5.695,1.522,11.616,4.285,11.616,12.123,0,6.6-5.47,11.557-12.8,12.065M100.5,31.041v-5.3a2.73,2.73,0,0,0-2.255,2.481c0,1.295.844,2.142,2.255,2.817m5.413,14.1c0-1.409-1.127-2.368-2.82-3.1V47.9c1.636-.338,2.82-1.409,2.82-2.762" transform="translate(40.221 6.139)" fill="#fff"/>
        <path id="Path_78373" data-name="Path 78373" d="M103.09,56.583v3.551H100.5V56.583c-7.273-.563-12.741-5.638-12.741-12.291h9.978a3.76,3.76,0,0,0,2.764,3.494V41.191c-.34-.114-.678-.171-1.015-.281C94.014,39.5,88.319,36.173,88.319,28.618,88.319,22.3,93.506,17.509,100.5,17V13.394h2.593V17c7.048.563,12.234,5.412,12.234,11.783H105.4a3.183,3.183,0,0,0-2.313-2.99v6.259l1.184.338c5.695,1.522,11.616,4.285,11.616,12.123C115.89,51.114,110.42,56.075,103.09,56.583ZM100.5,31.041v-5.3a2.73,2.73,0,0,0-2.255,2.481C98.243,29.519,99.087,30.366,100.5,31.041Zm5.413,14.1c0-1.409-1.127-2.368-2.82-3.1V47.9C104.727,47.561,105.911,46.491,105.911,45.138Z" transform="translate(40.221 6.139)" fill="none" stroke="#000" stroke-width="1.5"/>
        <path id="Path_78374" data-name="Path 78374" d="M23.742,23.984,0,23.389l.188-7.474,23.791.6Z" transform="translate(0 7.294)" fill="#9900e0"/>
        <path id="Path_78375" data-name="Path 78375" d="M59.635,49.5l18.067.452.146-5.687-18.1-.452Z" transform="translate(27.333 20.082)" fill="#9900e0"/>
        <rect id="Rectangle_23056" data-name="Rectangle 23056" width="1.424" height="1.426" transform="matrix(0.026, -1, 1, 0.026, 69.485, 71.323)" fill="#0f0f0f"/>
        <rect id="Rectangle_23057" data-name="Rectangle 23057" width="3.527" height="3.225" transform="translate(112.611 65.22) rotate(-88.579)" fill="#0f0f0f"/>
        <rect id="Rectangle_23058" data-name="Rectangle 23058" width="2.419" height="2.419" transform="matrix(0.025, -1, 1, 0.025, 137.314, 55.852)" fill="#83ffe7"/>
        <rect id="Rectangle_23059" data-name="Rectangle 23059" width="1.516" height="1.516" transform="matrix(0.024, -1, 1, 0.024, 79.229, 74.951)" fill="#83ffe7"/>
        <path id="Path_78376" data-name="Path 78376" d="M85.451,42.068l4.387.111.034-1.425-4.387-.111Z" transform="translate(39.165 18.628)" fill="#0f0f0f"/>
        <rect id="Rectangle_23060" data-name="Rectangle 23060" width="3.583" height="3.586" transform="matrix(0.025, -1, 1, 0.025, 46.575, 82.836)" fill="#0f0f0f"/>
        <path id="Path_78377" data-name="Path 78377" d="M42.338,51.366l-12.8-.321.066-2.561,12.833.321Z" transform="translate(13.538 22.221)" fill="#9900e0"/>
        <rect id="Rectangle_23061" data-name="Rectangle 23061" width="4.738" height="4.738" transform="translate(37.375 69.302) rotate(-88.571)" fill="#9900e0"/>
        <path id="Path_78378" data-name="Path 78378" d="M125.152,50,97.5,49.309l5.337-6.24,22.5.564Z" transform="translate(44.689 19.739)" fill="#0f0f0f"/>
        <path id="Path_78379" data-name="Path 78379" d="M1.333,32.158l29.575.9-.12,5.771-29.683-.9Z" transform="translate(0.507 14.739)" fill="#0f0f0f"/>
        <rect id="Rectangle_23062" data-name="Rectangle 23062" width="6.788" height="9.469" transform="translate(43.148 27.204) rotate(-88.572)" fill="#0f0f0f"/>
        <rect id="Rectangle_23063" data-name="Rectangle 23063" width="5.154" height="5.154" transform="translate(18.835 39.96) rotate(-88.573)" fill="#83ffe7"/>
        <rect id="Rectangle_23064" data-name="Rectangle 23064" width="3.008" height="3.007" transform="translate(18.747 61.434) rotate(-88.583)" fill="#83ffe7"/>
        <rect id="Rectangle_23065" data-name="Rectangle 23065" width="5.209" height="5.208" transform="matrix(0.025, -1, 1, 0.025, 61.232, 70.704)" fill="#9900e0"/>
        <rect id="Rectangle_23066" data-name="Rectangle 23066" width="6.787" height="2.67" transform="translate(38.719 27.176) rotate(-88.547)" fill="#0f0f0f"/>
        <rect id="Rectangle_23067" data-name="Rectangle 23067" width="4.115" height="14.875" transform="translate(32.645 39.318) rotate(-88.558)" fill="#83ffe7"/>
        <rect id="Rectangle_23068" data-name="Rectangle 23068" width="1.872" height="1.872" transform="translate(104.213 18.79) rotate(-88.571)" fill="#0f0f0f"/>
        <rect id="Rectangle_23069" data-name="Rectangle 23069" width="4.642" height="4.238" transform="translate(78.862 4.64) rotate(-88.578)" fill="#0f0f0f"/>
        <rect id="Rectangle_23070" data-name="Rectangle 23070" width="3.179" height="3.179" transform="matrix(0.025, -1, 1, 0.025, 65.307, 28.793)" fill="#83ffe7"/>
        <rect id="Rectangle_23071" data-name="Rectangle 23071" width="5.867" height="5.869" transform="translate(101.601 26.829) rotate(-88.562)" fill="#0f0f0f"/>
        <rect id="Rectangle_23072" data-name="Rectangle 23072" width="1.872" height="5.77" transform="translate(69.414 11) rotate(-88.571)" fill="#0f0f0f"/>
        <path id="Path_78380" data-name="Path 78380" d="M124.865,36.547l-21.031-.526.153-6.159,21.064.526Z" transform="translate(47.591 13.686)" fill="#0f0f0f"/>
        <rect id="Rectangle_23073" data-name="Rectangle 23073" width="5.975" height="5.46" transform="translate(80.41 60.409) rotate(-88.574)" fill="#0f0f0f"/>
        <rect id="Rectangle_23074" data-name="Rectangle 23074" width="4.707" height="4.707" transform="translate(157.377 41.013) rotate(-88.562)" fill="#0f0f0f"/>
        <rect id="Rectangle_23075" data-name="Rectangle 23075" width="4.093" height="4.096" transform="matrix(0.025, -1, 1, 0.025, 119.764, 71.06)" fill="#83ffe7"/>
        <rect id="Rectangle_23076" data-name="Rectangle 23076" width="7.561" height="7.561" transform="translate(170.435 59.083) rotate(-88.563)" fill="#9900e0"/>
        <rect id="Rectangle_23077" data-name="Rectangle 23077" width="4.708" height="4.708" transform="translate(125.421 26.014) rotate(-88.562)" fill="#0f0f0f"/>
        <rect id="Rectangle_23078" data-name="Rectangle 23078" width="4.098" height="4.101" transform="translate(101.458 50.009) rotate(-88.572)" fill="#83ffe7"/>
        <rect id="Rectangle_23079" data-name="Rectangle 23079" width="5.116" height="23.746" transform="translate(147.095 33.571) rotate(-88.563)" fill="#83ffe7"/>
        <path id="Path_78381" data-name="Path 78381" d="M50.286,21.183l16.823.42.083-3.366-16.86-.423Z" transform="translate(23.048 8.165)" fill="#9900e0"/>
        <rect id="Rectangle_23080" data-name="Rectangle 23080" width="2.702" height="2.699" transform="translate(87.927 5.794) rotate(-88.577)" fill="#9900e0"/>
        <rect id="Rectangle_23081" data-name="Rectangle 23081" width="6.225" height="6.225" transform="translate(113.748 20.029) rotate(-88.564)" fill="#9900e0"/>
        <rect id="Rectangle_23082" data-name="Rectangle 23082" width="7.558" height="7.558" transform="translate(28.238 68.737) rotate(-88.563)" fill="#9900e0"/>
        <rect id="Rectangle_23083" data-name="Rectangle 23083" width="2.398" height="2.397" transform="translate(65.503 62.646) rotate(-88.536)" fill="#9900e0"/>
        <rect id="Rectangle_23084" data-name="Rectangle 23084" width="4.089" height="4.089" transform="translate(52.984 17.1) rotate(-88.569)" fill="#83ffe7"/>
        <rect id="Rectangle_23085" data-name="Rectangle 23085" width="2.774" height="27.377" transform="translate(41.359 34.308) rotate(-88.554)" fill="#0f0f0f"/>
        <rect id="Rectangle_23086" data-name="Rectangle 23086" width="2.998" height="2.998" transform="translate(95.171 42.592) rotate(-88.578)" fill="#83ffe7"/>
        <path id="Path_78382" data-name="Path 78382" d="M124.192,39.837l-28.279-.875L96,35.653l28.335.875Z" transform="translate(43.96 16.341)" fill="#9900e0"/>
        <rect id="Rectangle_23087" data-name="Rectangle 23087" width="2.858" height="13.268" transform="matrix(0.026, -1, 1, 0.026, 151.425, 26.077)" fill="#83ffe7"/>
        <rect id="Rectangle_23088" data-name="Rectangle 23088" width="5.867" height="5.869" transform="translate(90.694 16.666) rotate(-88.562)" fill="#0f0f0f"/>
      </g>
    </g>
  </g>
</svg>
