<?xml version="1.0" encoding="utf-8"?>
<!-- Generator: Adobe Illustrator 18.0.0, SVG Export Plug-In . SVG Version: 6.00 Build 0)  -->
<!DOCTYPE svg PUBLIC "-//W3C//DTD SVG 1.1//EN" "http://www.w3.org/Graphics/SVG/1.1/DTD/svg11.dtd">
<svg version="1.1" id="Layer_1" xmlns="http://www.w3.org/2000/svg" xmlns:xlink="http://www.w3.org/1999/xlink" x="0px" y="0px"
	 viewBox="44.9 -1.6 72.9 90.4" enable-background="new 44.9 -1.6 72.9 90.4" xml:space="preserve">
<g id="Group_35981" transform="translate(-1344.445 -1899.457)">
	<g id="Group_35391" transform="translate(-207 -445)">
		<g id="Group_37189" transform="translate(1583.445 2344.457)">
			<g>
				<defs>
					<rect id="SVGID_1_" x="12.9" y="11.4" width="72.9" height="64.4"/>
				</defs>
				<clipPath id="SVGID_2_">
					<use xlink:href="#SVGID_1_"  overflow="visible"/>
				</clipPath>
				<g id="Group_37189-2" transform="translate(0 0)" clip-path="url(#SVGID_2_)">
					<path id="Path_78345" fill="#9900E0" d="M56.7,39.9c-5.8,0-10.6,4.7-10.6,10.5S50.8,61,56.6,61c5.8,0,10.6-4.7,10.6-10.5
						c0,0,0-0.1,0-0.1V20.1c0-0.9-0.4-1.8-1.1-2.3c-0.7-0.6-1.7-0.7-2.6-0.5l-26.5,7.6c-1.3,0.4-2.2,1.5-2.2,2.9v20.9
						c-1.4-0.7-3-1.1-4.6-1.1c-5.8,0-10.6,4.7-10.6,10.5s4.7,10.6,10.5,10.6c5.8,0,10.6-4.7,10.6-10.5c0,0,0,0,0,0V41.3l20.6-5.4V41
						C59.8,40.3,58.3,39.9,56.7,39.9L56.7,39.9z"/>
					<path id="Path_78346" fill="#0CFFF8" d="M60.4,44.5c-5.8,0-10.6,4.7-10.6,10.5s4.7,10.6,10.5,10.6c5.8,0,10.6-4.7,10.6-10.5
						c0,0,0-0.1,0-0.1V24.7c0-0.9-0.4-1.8-1.1-2.3c-0.7-0.6-1.7-0.7-2.6-0.5l-26.5,7.6c-1.3,0.4-2.2,1.5-2.2,2.9v20.9
						c-1.4-0.7-3-1.1-4.6-1.1c-5.8,0-10.6,4.7-10.6,10.5c0,5.8,4.7,10.6,10.5,10.6c5.8,0,10.6-4.7,10.6-10.5c0,0,0,0,0,0V46L65,40.6
						v5.1C63.5,44.9,62,44.6,60.4,44.5L60.4,44.5z"/>
					<path id="Path_78347" fill="#FFFFFF" d="M58.5,42.7c-5.8,0-10.6,4.7-10.6,10.5s4.7,10.6,10.5,10.6c5.8,0,10.6-4.7,10.6-10.5
						c0,0,0-0.1,0-0.1V22.9c0-0.9-0.4-1.8-1.1-2.3c-0.7-0.6-1.7-0.7-2.6-0.5l-26.5,7.6c-1.3,0.4-2.2,1.5-2.2,2.9v20.9
						c-1.4-0.7-3-1.1-4.6-1.1c-5.8,0-10.6,4.7-10.6,10.5c0,5.8,4.7,10.6,10.5,10.6c5.8,0,10.6-4.7,10.6-10.5c0,0,0,0,0,0V44.1
						l20.6-5.4v5.1C61.7,43.1,60.1,42.7,58.5,42.7L58.5,42.7z"/>
					<path id="Path_78348" fill="none" stroke="#000000" stroke-width="1.5" d="M58.5,42.7c-5.8,0-10.6,4.7-10.6,10.5
						s4.7,10.6,10.5,10.6c5.8,0,10.6-4.7,10.6-10.5c0,0,0-0.1,0-0.1V22.9c0-0.9-0.4-1.8-1.1-2.3c-0.7-0.6-1.7-0.7-2.6-0.5l-26.5,7.6
						c-1.3,0.4-2.2,1.5-2.2,2.9v20.9c-1.4-0.7-3-1.1-4.6-1.1c-5.8,0-10.6,4.7-10.6,10.5c0,5.8,4.7,10.6,10.5,10.6
						c5.8,0,10.6-4.7,10.6-10.5c0,0,0,0,0,0V44.1l20.6-5.4v5.1C61.7,43.1,60.1,42.7,58.5,42.7L58.5,42.7z"/>
					<path id="Path_78349" fill="#9900E0" d="M32.9,29.1l-15.1-0.4l0.1-4.7L33,24.4L32.9,29.1z"/>
					<path id="Path_78350" fill="#9900E0" d="M39.8,72.5l11.5,0.3l0.1-3.6l-11.5-0.3L39.8,72.5z"/>
					
						<rect id="Rectangle_23022" x="45.1" y="62.4" transform="matrix(-2.599118e-002 0.9997 -0.9997 -2.599118e-002 109.5817 18.9189)" fill="#0F0F0F" width="0.9" height="0.9"/>
					
						<rect id="Rectangle_23023" x="55.5" y="69.4" transform="matrix(-2.499217e-002 0.9997 -0.9997 -2.499217e-002 128.4595 15.5903)" fill="#0F0F0F" width="2.2" height="2"/>
					
						<rect id="Rectangle_23024" x="71.3" y="64.1" transform="matrix(-2.532192e-002 0.9997 -0.9997 -2.532192e-002 138.6902 -5.5487)" fill="#83FFE7" width="1.5" height="1.5"/>
					
						<rect id="Rectangle_23025" x="51.3" y="64.6" transform="matrix(-2.404832e-002 0.9997 -0.9997 -2.404832e-002 118.1344 14.9101)" fill="#83FFE7" width="1" height="1"/>
					<path id="Path_78351" fill="#0F0F0F" d="M63.2,68.7l2.8,0.1l0-0.9l-2.8-0.1L63.2,68.7z"/>
					
						<rect id="Rectangle_23026" x="27.6" y="73.5" transform="matrix(-2.523481e-002 0.9997 -0.9997 -2.523481e-002 104.111 47.7674)" fill="#0F0F0F" width="2.3" height="2.3"/>
					<path id="Path_78352" fill="#9900E0" d="M33.5,69.9l-8.1-0.2l0-1.6l8.1,0.2L33.5,69.9z"/>
					
						<rect id="Rectangle_23027" x="23.4" y="62.1" transform="matrix(-2.493819e-002 0.9997 -0.9997 -2.493819e-002 89.0781 40.2719)" fill="#9900E0" width="3" height="3"/>
					<path id="Path_78353" fill="#0F0F0F" d="M77.2,63.4l-17.6-0.4l3.4-4l14.3,0.4L77.2,63.4z"/>
					<path id="Path_78354" fill="#0F0F0F" d="M19.9,49.2l18.8,0.6l-0.1,3.7l-18.9-0.6L19.9,49.2z"/>
					
						<rect id="Rectangle_23028" x="33.3" y="30.2" transform="matrix(-2.492079e-002 0.9997 -0.9997 -2.492079e-002 69.5243 -1.439)" fill="#0F0F0F" width="4.3" height="6"/>
					
						<rect id="Rectangle_23029" x="17.3" y="43.1" transform="matrix(-2.490327e-002 0.9997 -0.9997 -2.490327e-002 64.1094 26.895)" fill="#83FFE7" width="3.3" height="3.3"/>
					
						<rect id="Rectangle_23030" x="12.9" y="55.1" transform="matrix(-2.472880e-002 0.9997 -0.9997 -2.472880e-002 70.2647 43.5982)" fill="#83FFE7" width="1.9" height="1.9"/>
					
						<rect id="Rectangle_23031" x="36.9" y="64.8" transform="matrix(-2.519989e-002 0.9997 -0.9997 -2.519989e-002 105.9884 29.5177)" fill="#9900E0" width="3.3" height="3.3"/>
					
						<rect id="Rectangle_23032" x="28.3" y="32.3" transform="matrix(-2.535696e-002 0.9997 -0.9997 -2.535696e-002 64.3728 3.4715)" fill="#0F0F0F" width="4.3" height="1.7"/>
					
						<rect id="Rectangle_23033" x="27.5" y="41.2" transform="matrix(-2.516497e-002 0.9997 -0.9997 -2.516497e-002 75.4406 18.362)" fill="#83FFE7" width="2.6" height="9.4"/>
					
						<rect id="Rectangle_23034" x="56.5" y="13.4" transform="matrix(-2.493819e-002 0.9997 -0.9997 -2.493819e-002 72.5267 -42.789)" fill="#0F0F0F" width="1.2" height="1.2"/>
					
						<rect id="Rectangle_23035" x="51" y="18.2" transform="matrix(-2.481604e-002 0.9997 -0.9997 -2.481604e-002 73.2382 -32.4487)" fill="#0F0F0F" width="2.9" height="2.7"/>
					
						<rect id="Rectangle_23036" x="43.5" y="18.5" transform="matrix(-2.499217e-002 0.9997 -0.9997 -2.499217e-002 65.0986 -24.5575)" fill="#83FFE7" width="2" height="2"/>
					
						<rect id="Rectangle_23037" x="54.9" y="16" transform="matrix(-2.499217e-002 0.9997 -0.9997 -2.499217e-002 76.0298 -38.4667)" fill="#0F0F0F" width="3.7" height="3.7"/>
					
						<rect id="Rectangle_23038" x="46.3" y="22.6" transform="matrix(-2.493819e-002 0.9997 -0.9997 -2.493819e-002 72.5004 -21.8583)" fill="#0F0F0F" width="1.2" height="3.7"/>
					<path id="Path_78355" fill="#0F0F0F" d="M81.1,44l-13.4-0.3l0.1-3.9L81.2,40L81.1,44z"/>
					
						<rect id="Rectangle_23039" x="51.9" y="52.8" transform="matrix(-2.499217e-002 0.9997 -0.9997 -2.499217e-002 109.6566 2.0502)" fill="#0F0F0F" width="3.8" height="3.5"/>
					
						<rect id="Rectangle_23040" x="71.6" y="35.2" transform="matrix(-2.509526e-002 0.9997 -0.9997 -2.509526e-002 111.5198 -35.4654)" fill="#0F0F0F" width="3" height="3"/>
					
						<rect id="Rectangle_23041" x="60.2" y="72.7" transform="matrix(-2.499217e-002 0.9997 -0.9997 -2.499217e-002 136.9386 14.3931)" fill="#83FFE7" width="2.6" height="2.6"/>
					
						<rect id="Rectangle_23042" x="80.9" y="51.6" transform="matrix(-2.507774e-002 0.9997 -0.9997 -2.507774e-002 139.3955 -27.933)" fill="#9900E0" width="4.8" height="4.8"/>
					
						<rect id="Rectangle_23043" x="70" y="16.2" transform="matrix(-2.509526e-002 0.9997 -0.9997 -2.509526e-002 90.9969 -53.37)" fill="#0F0F0F" width="3" height="3"/>
					
						<rect id="Rectangle_23044" x="65.4" y="47.2" transform="matrix(-2.492079e-002 0.9997 -0.9997 -2.492079e-002 116.8769 -17.0376)" fill="#83FFE7" width="2.6" height="2.6"/>
					
						<rect id="Rectangle_23045" x="72" y="24.2" transform="matrix(-2.507774e-002 0.9997 -0.9997 -2.507774e-002 107.1585 -41.0872)" fill="#83FFE7" width="3.2" height="15.1"/>
					<path id="Path_78356" fill="#9900E0" d="M51.3,27.6l10.7,0.3l0.1-2.1l-10.7-0.3L51.3,27.6z"/>
					
						<rect id="Rectangle_23046" x="56.8" y="20" transform="matrix(-2.483344e-002 0.9997 -0.9997 -2.483344e-002 79.9595 -36.3306)" fill="#9900E0" width="1.7" height="1.7"/>
					
						<rect id="Rectangle_23047" x="62.6" y="11.4" transform="matrix(-2.506022e-002 0.9997 -0.9997 -2.506022e-002 79.6321 -50.8304)" fill="#9900E0" width="4" height="4"/>
					
						<rect id="Rectangle_23048" x="17.6" y="59.9" transform="matrix(-2.507774e-002 0.9997 -0.9997 -2.507774e-002 82.8441 43.9022)" fill="#9900E0" width="4.8" height="4.8"/>
					
						<rect id="Rectangle_23049" x="42.6" y="56.3" transform="matrix(-2.554882e-002 0.9997 -0.9997 -2.554882e-002 101.482 15.1437)" fill="#9900E0" width="1.5" height="1.5"/>
					
						<rect id="Rectangle_23050" x="34.7" y="26.3" transform="matrix(-2.497310e-002 0.9997 -0.9997 -2.497310e-002 64.4344 -7.6764)" fill="#83FFE7" width="2.6" height="2.6"/>
					
						<rect id="Rectangle_23051" x="35.1" y="30.4" transform="matrix(-2.523481e-002 0.9997 -0.9997 -2.523481e-002 75.9722 4.1551)" fill="#0F0F0F" width="1.8" height="17.4"/>
					
						<rect id="Rectangle_23052" x="36" y="22" transform="matrix(-2.481604e-002 0.9997 -0.9997 -2.481604e-002 60.7504 -13.4498)" fill="#83FFE7" width="1.9" height="1.9"/>
					<path id="Path_78357" fill="#9900E0" d="M79.4,54.5l-18-0.6l0.1-2.1l18,0.6L79.4,54.5z"/>
					
						<rect id="Rectangle_23053" x="72.1" y="23.4" transform="matrix(-2.551390e-002 0.9997 -0.9997 -2.551390e-002 102.4583 -44.7091)" fill="#83FFE7" width="1.8" height="8.4"/>
					
						<rect id="Rectangle_23054" x="66.2" y="20.2" transform="matrix(-2.509526e-002 0.9997 -0.9997 -2.509526e-002 91.8072 -45.484)" fill="#0F0F0F" width="3.7" height="3.7"/>
				</g>
			</g>
		</g>
	</g>
</g>
</svg>
