<svg id="Group_37188" data-name="Group 37188" xmlns="http://www.w3.org/2000/svg" xmlns:xlink="http://www.w3.org/1999/xlink" width="77.027" height="92.423" viewBox="0 0 77.027 92.423">
  <defs>
    <clipPath id="clip-path">
      <rect id="Rectangle_23021" data-name="Rectangle 23021" width="77.027" height="92.423" transform="translate(0 0)" fill="none"/>
    </clipPath>
  </defs>
  <g id="Group_37188-2" data-name="Group 37188" clip-path="url(#clip-path)">
    <path id="Path_78330" data-name="Path 78330" d="M59.6,11.792,38.769,4.067C35.738,9.4,31.246,11.53,25.118,10.344Q14.716,38.439,4.255,66.683A11.482,11.482,0,0,1,9.9,72.45a11.39,11.39,0,0,1,.5,8.069c6.073,2.252,20.929,7.652,20.929,7.652,1.448-3.407,6.958-8.221,13.75-6.369.177-.465.361-.936.536-1.41Q50.4,67.507,55.172,54.619,60.05,41.437,64.92,28.25c.288-.779.615-1.543.924-2.315v-.58A11.576,11.576,0,0,1,59.6,11.792M42.409,72.81a.866.866,0,0,1-1.139.533c-1.153-.4-2.3-.833-3.443-1.258q-8.682-3.219-17.362-6.443-4-1.485-8-2.971a.947.947,0,0,1-.742-.949.911.911,0,0,1,.678-.846,1.624,1.624,0,0,1,.269-.045c.112.034.252.069.387.118l22.926,8.5L41.5,71.5a4.355,4.355,0,0,1,.449.176.894.894,0,0,1,.463,1.137M48.463,48.9c-2.428,1.072-4.85,2.157-7.28,3.223a.716.716,0,0,0-.471.592c-.482,2.643-.976,5.284-1.466,7.926a.974.974,0,0,1-.738.86.93.93,0,0,1-.968-.389c-1.774-1.977-3.555-3.948-5.317-5.934a.845.845,0,0,0-.834-.321c-2.584.349-5.171.677-7.754,1.026a1.075,1.075,0,0,1-1.169-.354,1.018,1.018,0,0,1,.087-1.21c1.314-2.251,2.607-4.515,3.929-6.761a.9.9,0,0,0,.027-.972Q24.781,43,23.1,39.392a.924.924,0,0,1,.841-1.4c.695.146,1.466.3,2.236.47,1.966.421,3.933.84,5.9,1.271a.72.72,0,0,0,.733-.207c1.932-1.845,3.88-3.674,5.815-5.515a.984.984,0,0,1,1.044-.319,1,1,0,0,1,.651.981q.309,3.049.624,6.1c.066.641.113,1.285.221,1.918a.857.857,0,0,0,.375.534q3.5,1.946,7.029,3.847a.992.992,0,0,1,.652.925c-.014.492-.346.721-.753.9m9.356-17.974a.832.832,0,0,1-1.055.2c-.981-.36-1.959-.726-2.939-1.09L28.46,20.62a3.8,3.8,0,0,1-.666-.277.83.83,0,0,1-.422-.985.9.9,0,0,1,.938-.7c.1.028.255.061.4.117q9.022,3.341,18.044,6.686c3.5,1.3,7,2.582,10.487,3.9a1.392,1.392,0,0,1,.763.645,1.167,1.167,0,0,1-.189.914" fill="#9900e0"/>
    <path id="Path_78331" data-name="Path 78331" d="M62.6,14.792,41.769,7.067c-3.031,5.332-7.523,7.463-13.651,6.277q-10.4,28.1-20.863,56.339A11.482,11.482,0,0,1,12.9,75.45a11.39,11.39,0,0,1,.5,8.069c6.073,2.252,20.929,7.652,20.929,7.652,1.448-3.407,6.958-8.221,13.75-6.369.177-.465.361-.936.536-1.41Q53.4,70.507,58.172,57.619,63.05,44.437,67.92,31.25c.288-.779.615-1.543.924-2.315v-.58A11.576,11.576,0,0,1,62.6,14.792M45.409,75.81a.866.866,0,0,1-1.139.533c-1.153-.4-2.3-.833-3.443-1.258q-8.682-3.219-17.362-6.443-4-1.485-8-2.971a.947.947,0,0,1-.742-.949.911.911,0,0,1,.678-.846,1.624,1.624,0,0,1,.269-.045c.112.034.252.069.387.118l22.926,8.5L44.5,74.5a4.355,4.355,0,0,1,.449.176.894.894,0,0,1,.463,1.137M51.463,51.9c-2.428,1.072-4.85,2.157-7.28,3.223a.716.716,0,0,0-.471.592c-.482,2.643-.976,5.284-1.466,7.926a.974.974,0,0,1-.738.86.93.93,0,0,1-.968-.389c-1.774-1.977-3.555-3.948-5.317-5.934a.845.845,0,0,0-.834-.321c-2.584.349-5.171.677-7.754,1.026a1.075,1.075,0,0,1-1.169-.354,1.018,1.018,0,0,1,.087-1.21c1.314-2.251,2.607-4.515,3.929-6.761a.9.9,0,0,0,.027-.972Q27.781,46,26.1,42.392a.924.924,0,0,1,.841-1.4c.695.146,1.466.3,2.236.47,1.966.421,3.933.84,5.9,1.271a.72.72,0,0,0,.733-.207c1.932-1.845,3.88-3.674,5.815-5.515a.984.984,0,0,1,1.044-.319,1,1,0,0,1,.651.981q.309,3.049.624,6.1c.066.641.113,1.285.221,1.918a.857.857,0,0,0,.375.534q3.5,1.946,7.029,3.847a.992.992,0,0,1,.652.925c-.014.492-.346.721-.753.9m9.356-17.974a.832.832,0,0,1-1.055.2c-.981-.36-1.959-.726-2.939-1.09L31.46,23.62a3.8,3.8,0,0,1-.666-.277.83.83,0,0,1-.422-.985.9.9,0,0,1,.938-.7c.1.028.255.061.4.117q9.022,3.341,18.044,6.686c3.5,1.3,7,2.582,10.487,3.9a1.392,1.392,0,0,1,.763.645,1.167,1.167,0,0,1-.189.914" fill="#0cfff8"/>
    <path id="Path_78332" data-name="Path 78332" d="M60.6,12.792,39.769,5.067c-3.031,5.332-7.523,7.463-13.651,6.277Q15.716,39.439,5.255,67.683A11.482,11.482,0,0,1,10.9,73.45a11.39,11.39,0,0,1,.5,8.069c6.073,2.252,20.929,7.652,20.929,7.652,1.448-3.407,6.958-8.221,13.75-6.369.177-.465.361-.936.536-1.41Q51.4,68.507,56.172,55.619,61.05,42.437,65.92,29.25c.288-.779.615-1.543.924-2.315v-.58A11.576,11.576,0,0,1,60.6,12.792M43.409,73.81a.866.866,0,0,1-1.139.533c-1.153-.4-2.3-.833-3.443-1.258q-8.682-3.219-17.362-6.443-4-1.485-8-2.971a.947.947,0,0,1-.742-.949.911.911,0,0,1,.678-.846,1.624,1.624,0,0,1,.269-.045c.112.034.252.069.387.118l22.926,8.5L42.5,72.5a4.355,4.355,0,0,1,.449.176.894.894,0,0,1,.463,1.137M49.463,49.9c-2.428,1.072-4.85,2.157-7.28,3.223a.716.716,0,0,0-.471.592c-.482,2.643-.976,5.284-1.466,7.926a.974.974,0,0,1-.738.86.93.93,0,0,1-.968-.389c-1.774-1.977-3.555-3.948-5.317-5.934a.845.845,0,0,0-.834-.321c-2.584.349-5.171.677-7.754,1.026a1.075,1.075,0,0,1-1.169-.354,1.018,1.018,0,0,1,.087-1.21c1.314-2.251,2.607-4.515,3.929-6.761a.9.9,0,0,0,.027-.972Q25.781,44,24.1,40.392a.924.924,0,0,1,.841-1.4c.695.146,1.466.3,2.236.47,1.966.421,3.933.84,5.9,1.271a.72.72,0,0,0,.733-.207c1.932-1.845,3.88-3.674,5.815-5.515a.984.984,0,0,1,1.044-.319,1,1,0,0,1,.651.981q.309,3.049.624,6.1c.066.641.113,1.285.221,1.918a.857.857,0,0,0,.375.534q3.5,1.946,7.029,3.847a.992.992,0,0,1,.652.925c-.014.492-.346.721-.753.9m9.356-17.974a.832.832,0,0,1-1.055.2c-.981-.36-1.959-.726-2.939-1.09L29.46,21.62a3.8,3.8,0,0,1-.666-.277.83.83,0,0,1-.422-.985.9.9,0,0,1,.938-.7c.1.028.255.061.4.117q9.022,3.341,18.044,6.686c3.5,1.3,7,2.582,10.487,3.9a1.392,1.392,0,0,1,.763.645,1.167,1.167,0,0,1-.189.914" fill="#fff"/>
    <path id="Path_78333" data-name="Path 78333" d="M60.6,12.792,39.769,5.066c-3.031,5.332-7.523,7.464-13.651,6.278Q15.714,39.437,5.255,67.683A11.487,11.487,0,0,1,10.9,73.449a11.388,11.388,0,0,1,.5,8.07c6.073,2.252,20.93,7.652,20.93,7.652,1.448-3.408,6.958-8.221,13.75-6.369.177-.465.36-.936.536-1.41Q51.4,68.507,56.172,55.619,61.05,42.437,65.92,29.25c.288-.779.615-1.544.924-2.315v-.58A11.576,11.576,0,0,1,60.6,12.792Z" fill="none" stroke="#000" stroke-width="1"/>
    <path id="Path_78334" data-name="Path 78334" d="M21.683,31.117,5.4,30.709l.129-5.125,16.314.409Z" fill="#9900e0"/>
    <rect id="Rectangle_22982" data-name="Rectangle 22982" width="3.542" height="4.942" transform="matrix(0.025, -1, 1, 0.025, 59.989, 81.246)" fill="#0f0f0f"/>
    <path id="Path_78335" data-name="Path 78335" d="M41.126,83.506l12.389.31.1-3.9L41.2,79.606Z" fill="#9900e0"/>
    <rect id="Rectangle_22983" data-name="Rectangle 22983" width="3.544" height="1.394" transform="matrix(0.024, -1, 1, 0.024, 65.845, 81.436)" fill="#0f0f0f"/>
    <rect id="Rectangle_22984" data-name="Rectangle 22984" width="1.416" height="1.417" transform="matrix(0.025, -1, 1, 0.025, 43.988, 88.529)" fill="#83ffe7"/>
    <rect id="Rectangle_22985" data-name="Rectangle 22985" width="0.976" height="0.978" transform="matrix(0.026, -1, 1, 0.026, 38.065, 67.994)" fill="#0f0f0f"/>
    <rect id="Rectangle_22986" data-name="Rectangle 22986" width="2.419" height="2.212" transform="translate(49.365 76.901) rotate(-88.579)" fill="#0f0f0f"/>
    <rect id="Rectangle_22987" data-name="Rectangle 22987" width="1.659" height="1.659" transform="matrix(0.025, -1, 1, 0.025, 66.305, 70.478)" fill="#83ffe7"/>
    <rect id="Rectangle_22988" data-name="Rectangle 22988" width="1.039" height="1.039" transform="translate(45.278 83.615) rotate(-88.622)" fill="#83ffe7"/>
    <rect id="Rectangle_22989" data-name="Rectangle 22989" width="3.061" height="3.061" transform="translate(37.5 91.625) rotate(-88.577)" fill="#0f0f0f"/>
    <path id="Path_78336" data-name="Path 78336" d="M57.6,73.8l3.008.076.023-.977-3.008-.076Z" fill="#0f0f0f"/>
    <rect id="Rectangle_22990" data-name="Rectangle 22990" width="2.457" height="2.459" transform="matrix(0.025, -1, 1, 0.025, 16.774, 80.964)" fill="#0f0f0f"/>
    <rect id="Rectangle_22991" data-name="Rectangle 22991" width="2.669" height="12.394" transform="translate(8.414 87.43) rotate(-88.561)" fill="#83ffe7"/>
    <path id="Path_78337" data-name="Path 78337" d="M25.536,75.112l-8.778-.22.045-1.756,8.8.22Z" fill="#9900e0"/>
    <path id="Path_78338" data-name="Path 78338" d="M26.937,92.387l1.409.036.034-1.409-1.409-.036Z" fill="#9900e0"/>
    <rect id="Rectangle_22992" data-name="Rectangle 22992" width="3.249" height="3.249" transform="translate(14.578 69.894) rotate(-88.571)" fill="#9900e0"/>
    <path id="Path_78339" data-name="Path 78339" d="M18.67,16.915l14.4.361L30.282,20.6l-11.716-.3Z" fill="#0f0f0f"/>
    <path id="Path_78340" data-name="Path 78340" d="M72.759,68.07,53.8,67.6l3.66-4.279L72.89,63.7Z" fill="#0f0f0f"/>
    <path id="Path_78341" data-name="Path 78341" d="M.156,52.736l20.28.619-.082,3.957L0,56.693Z" fill="#0f0f0f"/>
    <rect id="Rectangle_22993" data-name="Rectangle 22993" width="4.654" height="6.493" transform="translate(12.935 37.741) rotate(-88.572)" fill="#0f0f0f"/>
    <rect id="Rectangle_22994" data-name="Rectangle 22994" width="3.534" height="3.534" transform="translate(1.163 49.664) rotate(-88.573)" fill="#83ffe7"/>
    <rect id="Rectangle_22995" data-name="Rectangle 22995" width="2.063" height="2.062" transform="matrix(0.025, -1, 1, 0.025, 3.273, 61.213)" fill="#83ffe7"/>
    <rect id="Rectangle_22996" data-name="Rectangle 22996" width="3.572" height="3.571" transform="translate(29.209 73.135) rotate(-88.556)" fill="#9900e0"/>
    <rect id="Rectangle_22997" data-name="Rectangle 22997" width="4.654" height="1.831" transform="translate(9.898 37.722) rotate(-88.547)" fill="#0f0f0f"/>
    <rect id="Rectangle_22998" data-name="Rectangle 22998" width="2.821" height="10.2" transform="translate(8.453 50.574) rotate(-88.558)" fill="#83ffe7"/>
    <rect id="Rectangle_22999" data-name="Rectangle 22999" width="1.283" height="1.283" transform="translate(43.247 1.283) rotate(-88.571)" fill="#0f0f0f"/>
    <rect id="Rectangle_23000" data-name="Rectangle 23000" width="3.183" height="2.906" transform="translate(37.354 8.175) rotate(-88.578)" fill="#0f0f0f"/>
    <rect id="Rectangle_23001" data-name="Rectangle 23001" width="2.18" height="2.18" transform="matrix(0.025, -1, 1, 0.025, 29.176, 7.65)" fill="#83ffe7"/>
    <rect id="Rectangle_23002" data-name="Rectangle 23002" width="4.023" height="4.024" transform="matrix(0.025, -1, 1, 0.025, 41.456, 6.795)" fill="#0f0f0f"/>
    <rect id="Rectangle_23003" data-name="Rectangle 23003" width="1.283" height="3.956" transform="translate(30.875 12.536) rotate(-88.571)" fill="#0f0f0f"/>
    <path id="Path_78342" data-name="Path 78342" d="M69.65,47.124l-14.421-.361.1-4.223,14.444.361Z" fill="#0f0f0f"/>
    <rect id="Rectangle_23004" data-name="Rectangle 23004" width="4.097" height="3.744" transform="translate(1.115 76.048) rotate(-88.573)" fill="#0f0f0f"/>
    <rect id="Rectangle_23005" data-name="Rectangle 23005" width="3.228" height="3.228" transform="translate(66.585 40.801) rotate(-88.562)" fill="#0f0f0f"/>
    <rect id="Rectangle_23006" data-name="Rectangle 23006" width="2.807" height="2.809" transform="matrix(0.025, -1, 1, 0.025, 56.509, 87.62)" fill="#83ffe7"/>
    <rect id="Rectangle_23007" data-name="Rectangle 23007" width="5.185" height="5.185" transform="translate(61.429 60.501) rotate(-88.563)" fill="#9900e0"/>
    <rect id="Rectangle_23008" data-name="Rectangle 23008" width="3.228" height="3.228" transform="translate(64.93 20.33) rotate(-88.562)" fill="#0f0f0f"/>
    <rect id="Rectangle_23009" data-name="Rectangle 23009" width="2.81" height="2.812" transform="translate(59.989 53.379) rotate(-88.572)" fill="#83ffe7"/>
    <rect id="Rectangle_23010" data-name="Rectangle 23010" width="3.508" height="16.283" transform="translate(60.661 35.448) rotate(-88.563)" fill="#83ffe7"/>
    <path id="Path_78343" data-name="Path 78343" d="M44.7,16.47l11.536.288L56.3,14.45l-11.561-.29Z" fill="#9900e0"/>
    <rect id="Rectangle_23011" data-name="Rectangle 23011" width="1.853" height="1.851" transform="translate(43.57 8.966) rotate(-88.577)" fill="#9900e0"/>
    <rect id="Rectangle_23012" data-name="Rectangle 23012" width="4.268" height="4.268" transform="translate(52.198 9.934) rotate(-88.564)" fill="#9900e0"/>
    <rect id="Rectangle_23013" data-name="Rectangle 23013" width="5.183" height="5.183" transform="translate(8.313 69.507) rotate(-88.563)" fill="#9900e0"/>
    <rect id="Rectangle_23014" data-name="Rectangle 23014" width="1.644" height="1.644" transform="translate(35.334 62.044) rotate(-88.536)" fill="#9900e0"/>
    <rect id="Rectangle_23015" data-name="Rectangle 23015" width="2.804" height="2.804" transform="translate(26.75 30.812) rotate(-88.569)" fill="#83ffe7"/>
    <rect id="Rectangle_23016" data-name="Rectangle 23016" width="1.902" height="18.773" transform="translate(7.366 42.612) rotate(-88.554)" fill="#0f0f0f"/>
    <rect id="Rectangle_23017" data-name="Rectangle 23017" width="2.056" height="2.056" transform="translate(28.186 25.396) rotate(-88.578)" fill="#83ffe7"/>
    <path id="Path_78344" data-name="Path 78344" d="M59.864,58.508l-19.391-.6.057-2.269,19.43.6Z" fill="#9900e0"/>
    <rect id="Rectangle_23018" data-name="Rectangle 23018" width="1.96" height="9.098" transform="translate(63.63 30.309) rotate(-88.538)" fill="#83ffe7"/>
    <rect id="Rectangle_23019" data-name="Rectangle 23019" width="5.185" height="5.185" transform="translate(23.162 52.253) rotate(-88.563)" fill="#9900e0"/>
    <rect id="Rectangle_23020" data-name="Rectangle 23020" width="4.023" height="4.024" transform="matrix(0.025, -1, 1, 0.025, 60.808, 25.402)" fill="#0f0f0f"/>
  </g>
</svg>
