<svg xmlns="http://www.w3.org/2000/svg" xmlns:xlink="http://www.w3.org/1999/xlink" width="84.535" height="85.416" viewBox="0 0 84.535 85.416">
  <defs>
    <clipPath id="clip-path">
      <rect id="Rectangle_21846" data-name="Rectangle 21846" width="84.535" height="85.416" fill="none"/>
    </clipPath>
  </defs>
  <g id="Group_35977" data-name="Group 35977" transform="translate(0 0)">
    <g id="Group_35977-2" data-name="Group 35977" transform="translate(0 0)" clip-path="url(#clip-path)">
      <path id="Path_78189" data-name="Path 78189" d="M32.636,83.969c-.921-1.742-1.777-3.353-2.626-4.968-1.848-3.518-3.77-7-5.513-10.571a32.5,32.5,0,0,0-4.919-6.917A6.265,6.265,0,0,1,17.663,55.9a12.713,12.713,0,0,0-1.414-7.526,10.388,10.388,0,0,0-1.422-2c-.681-.884-1.343-1.785-2.084-2.616a12.458,12.458,0,0,1-2.17-3.933C8.558,34.653,6.473,29.5,4.5,24.3c-.625-1.645-.989-3.391-1.5-5.189,1.322-.331,2.575-.626,3.813-.967a3.534,3.534,0,0,0,1.205-.538c2.333-1.8,4.641-3.627,6.955-5.448a3.239,3.239,0,0,0,.257-.272L11.793,6.566C14.506,5.7,17.17,4.844,19.84,4.012a1.394,1.394,0,0,1,.692.082c1.1.281,2.208.545,3.295.88a2.912,2.912,0,0,1,1.081.612Q31.9,11.941,38.847,18.337a3.732,3.732,0,0,0,2.615,1.25,32.6,32.6,0,0,1,10.658,2.266,4.256,4.256,0,0,1,3.009,2.565c.313.836.88,1.574,1.242,2.4a7.317,7.317,0,0,0,3.308,3.8,1.162,1.162,0,0,1,.459.749c.287,1.453.5,2.923.8,4.373a3.782,3.782,0,0,0,.588,1.433q4.56,6.282,9.189,12.515a1.818,1.818,0,0,0,1.152.643c2.8.272,5.6.477,8.409.695a1.756,1.756,0,0,1,1.5.84c.535.85,1.468,1.569,1.675,2.472a7.573,7.573,0,0,1-.507,2.86c-.477,2.333-.937,4.669-1.444,6.995a1.2,1.2,0,0,1-.558.733c-3.728,1.845-7.432,3.745-11.229,5.435a22.9,22.9,0,0,1-4.542,1.07c-2.3.492-4.62.921-6.909,1.464a10.229,10.229,0,0,0-1.735.922,7.55,7.55,0,0,0-3.9,4.172,15.875,15.875,0,0,1-1.256,2.3.912.912,0,0,1-.689.4c-3.132-.33-6.265-.7-9.4-1.062-2-.23-4.007-.434-6-.71-.681-.093-.93.159-1.124.752-.459,1.4-.979,2.778-1.523,4.3" transform="translate(1.086 1.447)" fill="#0cfff8"/>
      <path id="Path_78190" data-name="Path 78190" d="M29.636,79.969c-.921-1.742-1.777-3.353-2.626-4.968-1.848-3.518-3.77-7-5.513-10.571a32.5,32.5,0,0,0-4.919-6.917A6.265,6.265,0,0,1,14.663,51.9a12.713,12.713,0,0,0-1.414-7.526,10.388,10.388,0,0,0-1.422-2c-.681-.884-1.343-1.785-2.084-2.616a12.458,12.458,0,0,1-2.17-3.933C5.558,30.653,3.473,25.5,1.5,20.3.873,18.657.509,16.911,0,15.113c1.322-.331,2.575-.626,3.813-.967a3.534,3.534,0,0,0,1.205-.538c2.333-1.8,4.641-3.627,6.955-5.448a3.239,3.239,0,0,0,.257-.272L8.793,2.566C11.506,1.7,14.17.844,16.84.012a1.394,1.394,0,0,1,.692.082c1.1.281,2.208.545,3.295.88a2.912,2.912,0,0,1,1.081.612Q28.9,7.941,35.847,14.337a3.732,3.732,0,0,0,2.615,1.25,32.6,32.6,0,0,1,10.658,2.266,4.256,4.256,0,0,1,3.009,2.565c.313.836.88,1.574,1.242,2.4a7.317,7.317,0,0,0,3.308,3.8,1.162,1.162,0,0,1,.459.749c.287,1.453.5,2.923.8,4.373a3.782,3.782,0,0,0,.588,1.433q4.56,6.282,9.189,12.515a1.818,1.818,0,0,0,1.152.643c2.8.272,5.6.477,8.409.695a1.756,1.756,0,0,1,1.5.84c.535.85,1.468,1.569,1.675,2.472a7.573,7.573,0,0,1-.507,2.86c-.477,2.333-.937,4.669-1.444,6.995a1.2,1.2,0,0,1-.558.733c-3.728,1.845-7.432,3.745-11.229,5.435a22.9,22.9,0,0,1-4.542,1.07c-2.3.492-4.62.921-6.909,1.464a10.229,10.229,0,0,0-1.735.922,7.55,7.55,0,0,0-3.9,4.172,15.876,15.876,0,0,1-1.256,2.3.912.912,0,0,1-.689.4c-3.132-.33-6.265-.7-9.4-1.062-2-.23-4.007-.434-6-.71-.681-.093-.93.159-1.124.752-.459,1.4-.979,2.778-1.523,4.3" transform="translate(0 0)" fill="#9901e0"/>
      <path id="Path_78191" data-name="Path 78191" d="M30.636,81.969c-.921-1.742-1.777-3.353-2.626-4.968-1.848-3.518-3.77-7-5.513-10.571a32.5,32.5,0,0,0-4.919-6.917A6.265,6.265,0,0,1,15.663,53.9a12.713,12.713,0,0,0-1.414-7.526,10.388,10.388,0,0,0-1.422-2c-.681-.884-1.343-1.785-2.084-2.616a12.458,12.458,0,0,1-2.17-3.933C6.558,32.653,4.473,27.5,2.5,22.3c-.625-1.645-.989-3.391-1.5-5.189,1.322-.331,2.575-.626,3.813-.967a3.534,3.534,0,0,0,1.205-.538c2.333-1.8,4.641-3.627,6.955-5.448a3.239,3.239,0,0,0,.257-.272L9.793,4.566C12.506,3.7,15.17,2.844,17.84,2.012a1.394,1.394,0,0,1,.692.082c1.1.281,2.208.545,3.295.88a2.912,2.912,0,0,1,1.081.612Q29.9,9.941,36.847,16.337a3.732,3.732,0,0,0,2.615,1.25,32.6,32.6,0,0,1,10.658,2.266,4.256,4.256,0,0,1,3.009,2.565c.313.836.88,1.574,1.242,2.4a7.317,7.317,0,0,0,3.308,3.8,1.162,1.162,0,0,1,.459.749c.287,1.453.5,2.923.8,4.373a3.782,3.782,0,0,0,.588,1.433q4.56,6.282,9.189,12.515a1.818,1.818,0,0,0,1.152.643c2.8.272,5.6.477,8.409.695a1.756,1.756,0,0,1,1.5.84c.535.85,1.468,1.569,1.675,2.472a7.573,7.573,0,0,1-.507,2.86c-.477,2.333-.937,4.669-1.444,6.995a1.2,1.2,0,0,1-.558.733c-3.728,1.845-7.432,3.745-11.229,5.435a22.9,22.9,0,0,1-4.542,1.07c-2.3.492-4.62.921-6.909,1.464a10.23,10.23,0,0,0-1.735.922,7.55,7.55,0,0,0-3.9,4.172,15.875,15.875,0,0,1-1.256,2.3.912.912,0,0,1-.689.4c-3.132-.33-6.265-.7-9.4-1.062-2-.23-4.007-.434-6-.71-.681-.093-.93.159-1.124.752-.459,1.4-.979,2.778-1.523,4.3" transform="translate(0.362 0.723)" fill="#fff"/>
      <path id="Path_78192" data-name="Path 78192" d="M30.636,81.969c-.921-1.742-1.777-3.353-2.626-4.968-1.848-3.518-3.77-7-5.513-10.571a32.5,32.5,0,0,0-4.919-6.917A6.265,6.265,0,0,1,15.663,53.9a12.713,12.713,0,0,0-1.414-7.526,10.388,10.388,0,0,0-1.422-2c-.681-.884-1.343-1.785-2.084-2.616a12.458,12.458,0,0,1-2.17-3.933C6.558,32.653,4.473,27.5,2.5,22.3c-.625-1.645-.989-3.391-1.5-5.189,1.322-.331,2.575-.626,3.813-.967a3.534,3.534,0,0,0,1.205-.538c2.333-1.8,4.641-3.627,6.955-5.448a3.239,3.239,0,0,0,.257-.272L9.793,4.566C12.506,3.7,15.17,2.844,17.84,2.012a1.394,1.394,0,0,1,.692.082c1.1.281,2.208.545,3.295.88a2.912,2.912,0,0,1,1.081.612Q29.9,9.941,36.847,16.337a3.732,3.732,0,0,0,2.615,1.25,32.6,32.6,0,0,1,10.658,2.266,4.256,4.256,0,0,1,3.009,2.565c.313.836.88,1.574,1.242,2.4a7.317,7.317,0,0,0,3.308,3.8,1.162,1.162,0,0,1,.459.749c.287,1.453.5,2.923.8,4.373a3.782,3.782,0,0,0,.588,1.433q4.56,6.282,9.189,12.515a1.818,1.818,0,0,0,1.152.643c2.8.272,5.6.477,8.409.695a1.756,1.756,0,0,1,1.5.84c.535.85,1.468,1.569,1.675,2.472a7.573,7.573,0,0,1-.507,2.86c-.477,2.333-.937,4.669-1.444,6.995a1.2,1.2,0,0,1-.558.733c-3.728,1.845-7.432,3.745-11.229,5.435a22.9,22.9,0,0,1-4.542,1.07c-2.3.492-4.62.921-6.909,1.464a10.23,10.23,0,0,0-1.735.922,7.55,7.55,0,0,0-3.9,4.172,15.875,15.875,0,0,1-1.256,2.3.912.912,0,0,1-.689.4c-3.132-.33-6.265-.7-9.4-1.062-2-.23-4.007-.434-6-.71-.681-.093-.93.159-1.124.752-.459,1.4-.979,2.778-1.523,4.3" transform="translate(0.362 0.723)" fill="none" stroke="#231f20" stroke-width="1.5"/>
      <path id="Path_78193" data-name="Path 78193" d="M21.058,25.564,6.741,25.205,6.854,20.7l14.347.36Z" transform="translate(2.44 7.491)" fill="#9900e0"/>
      <rect id="Rectangle_21807" data-name="Rectangle 21807" width="3.114" height="4.345" transform="matrix(0.025, -1, 1, 0.025, 57.246, 76.574)" fill="#0f0f0f"/>
      <path id="Path_78194" data-name="Path 78194" d="M29.853,58.6l10.9.272.086-3.428-10.916-.272Z" transform="translate(10.805 19.967)" fill="#9900e0"/>
      <rect id="Rectangle_21808" data-name="Rectangle 21808" width="3.117" height="1.226" transform="translate(62.396 76.74) rotate(-88.623)" fill="#0f0f0f"/>
      <rect id="Rectangle_21809" data-name="Rectangle 21809" width="1.245" height="1.247" transform="translate(43.175 82.978) rotate(-88.559)" fill="#83ffe7"/>
      <rect id="Rectangle_21810" data-name="Rectangle 21810" width="0.858" height="0.86" transform="translate(37.966 64.919) rotate(-88.545)" fill="#0f0f0f"/>
      <rect id="Rectangle_21811" data-name="Rectangle 21811" width="2.127" height="1.944" transform="matrix(0.025, -1, 1, 0.025, 40.589, 69.691)" fill="#0f0f0f"/>
      <rect id="Rectangle_21812" data-name="Rectangle 21812" width="1.459" height="1.459" transform="translate(62.8 67.103) rotate(-88.556)" fill="#83ffe7"/>
      <rect id="Rectangle_21813" data-name="Rectangle 21813" width="0.914" height="0.914" transform="matrix(0.024, -1, 1, 0.024, 44.309, 78.656)" fill="#83ffe7"/>
      <rect id="Rectangle_21814" data-name="Rectangle 21814" width="2.692" height="2.692" transform="translate(37.147 68.613) rotate(-88.58)" fill="#0f0f0f"/>
      <path id="Path_78195" data-name="Path 78195" d="M40.488,51.641l2.645.067.02-.859-2.645-.067Z" transform="translate(14.654 18.379)" fill="#0f0f0f"/>
      <rect id="Rectangle_21815" data-name="Rectangle 21815" width="2.161" height="2.162" transform="matrix(0.025, -1, 1, 0.025, 19.242, 76.325)" fill="#0f0f0f"/>
      <rect id="Rectangle_21816" data-name="Rectangle 21816" width="2.347" height="10.896" transform="translate(11.89 82.012) rotate(-88.57)" fill="#83ffe7"/>
      <path id="Path_78196" data-name="Path 78196" d="M21.835,52.726l-7.719-.193.039-1.544,7.736.193Z" transform="translate(5.109 18.454)" fill="#9900e0"/>
      <path id="Path_78197" data-name="Path 78197" d="M27.249,51.75l1.239.031.03-1.239-1.239-.031Z" transform="translate(9.862 18.281)" fill="#9900e0"/>
      <rect id="Rectangle_21817" data-name="Rectangle 21817" width="2.857" height="2.857" transform="translate(17.31 66.59) rotate(-88.58)" fill="#9900e0"/>
      <path id="Path_78198" data-name="Path 78198" d="M7.721,15.874l12.666.317-2.451,2.923L7.63,18.856Z" transform="translate(2.762 5.745)" fill="#0f0f0f"/>
      <path id="Path_78199" data-name="Path 78199" d="M54.707,48.827,38.033,48.41l3.226-3.763,13.57.34Z" transform="translate(13.765 16.159)" fill="#0f0f0f"/>
      <path id="Path_78200" data-name="Path 78200" d="M3.463,37.345l21.666.545-.087,3.48L3.3,40.825Z" transform="translate(1.193 13.516)" fill="#0f0f0f"/>
      <rect id="Rectangle_21818" data-name="Rectangle 21818" width="4.093" height="5.71" transform="translate(4.165 36.909) rotate(-88.57)" fill="#0f0f0f"/>
      <rect id="Rectangle_21819" data-name="Rectangle 21819" width="3.108" height="3.108" transform="matrix(0.025, -1, 1, 0.025, 5.513, 48.799)" fill="#83ffe7"/>
      <rect id="Rectangle_21820" data-name="Rectangle 21820" width="1.815" height="1.813" transform="translate(16.713 54.643) rotate(-88.581)" fill="#83ffe7"/>
      <rect id="Rectangle_21821" data-name="Rectangle 21821" width="3.142" height="3.14" transform="translate(30.178 69.44) rotate(-88.559)" fill="#9900e0"/>
      <rect id="Rectangle_21822" data-name="Rectangle 21822" width="4.093" height="1.61" transform="translate(1.494 36.893) rotate(-88.551)" fill="#0f0f0f"/>
      <rect id="Rectangle_21823" data-name="Rectangle 21823" width="2.481" height="8.97" transform="translate(11.924 49.599) rotate(-88.553)" fill="#83ffe7"/>
      <rect id="Rectangle_21824" data-name="Rectangle 21824" width="1.128" height="1.128" transform="matrix(0.025, -1, 1, 0.025, 42.523, 6.252)" fill="#0f0f0f"/>
      <rect id="Rectangle_21825" data-name="Rectangle 21825" width="2.799" height="2.556" transform="translate(37.34 12.313) rotate(-88.578)" fill="#0f0f0f"/>
      <rect id="Rectangle_21826" data-name="Rectangle 21826" width="1.917" height="1.917" transform="translate(11.525 11.851) rotate(-88.575)" fill="#83ffe7"/>
      <rect id="Rectangle_21827" data-name="Rectangle 21827" width="3.537" height="3.538" transform="matrix(0.025, -1, 1, 0.025, 40.948, 11.099)" fill="#0f0f0f"/>
      <rect id="Rectangle_21828" data-name="Rectangle 21828" width="1.128" height="3.478" transform="matrix(0.025, -1, 1, 0.025, 19.83, 16.148)" fill="#0f0f0f"/>
      <path id="Path_78201" data-name="Path 78201" d="M56.78,33.688,44.1,33.371l.093-3.714,12.7.317Z" transform="translate(15.96 10.733)" fill="#0f0f0f"/>
      <rect id="Rectangle_21829" data-name="Rectangle 21829" width="3.602" height="3.291" transform="matrix(0.025, -1, 1, 0.025, 5.471, 72.002)" fill="#0f0f0f"/>
      <rect id="Rectangle_21830" data-name="Rectangle 21830" width="2.839" height="2.839" transform="translate(74.776 46.918) rotate(-88.571)" fill="#0f0f0f"/>
      <rect id="Rectangle_21831" data-name="Rectangle 21831" width="2.469" height="2.47" transform="translate(59.097 77.533) rotate(-88.577)" fill="#83ffe7"/>
      <rect id="Rectangle_21832" data-name="Rectangle 21832" width="4.558" height="4.558" transform="matrix(0.025, -1, 1, 0.025, 62.824, 58.33)" fill="#9900e0"/>
      <rect id="Rectangle_21833" data-name="Rectangle 21833" width="2.838" height="2.838" transform="matrix(0.025, -1, 1, 0.025, 67.176, 26.801)" fill="#0f0f0f"/>
      <rect id="Rectangle_21834" data-name="Rectangle 21834" width="2.471" height="2.473" transform="translate(68.896 52.515) rotate(-88.579)" fill="#83ffe7"/>
      <rect id="Rectangle_21835" data-name="Rectangle 21835" width="3.085" height="14.32" transform="translate(64.975 34.455) rotate(-88.558)" fill="#83ffe7"/>
      <path id="Path_78202" data-name="Path 78202" d="M44.232,14.936l10.145.253.05-2.029-10.167-.255Z" transform="translate(16.009 4.671)" fill="#9900e0"/>
      <rect id="Rectangle_21836" data-name="Rectangle 21836" width="1.629" height="1.628" transform="translate(42.807 13.009) rotate(-88.563)" fill="#9900e0"/>
      <rect id="Rectangle_21837" data-name="Rectangle 21837" width="3.753" height="3.753" transform="translate(54.13 13.86) rotate(-88.565)" fill="#9900e0"/>
      <rect id="Rectangle_21838" data-name="Rectangle 21838" width="4.558" height="4.558" transform="matrix(0.025, -1, 1, 0.025, 11.801, 66.249)" fill="#9900e0"/>
      <rect id="Rectangle_21839" data-name="Rectangle 21839" width="1.445" height="1.445" transform="translate(35.564 59.686) rotate(-88.542)" fill="#9900e0"/>
      <rect id="Rectangle_21840" data-name="Rectangle 21840" width="2.466" height="2.466" transform="translate(32.369 32.036) rotate(-88.576)" fill="#83ffe7"/>
      <rect id="Rectangle_21841" data-name="Rectangle 21841" width="1.673" height="16.509" transform="translate(18.661 42.291) rotate(-88.554)" fill="#0f0f0f"/>
      <rect id="Rectangle_21842" data-name="Rectangle 21842" width="1.808" height="1.808" transform="translate(29.278 27.457) rotate(-88.575)" fill="#83ffe7"/>
      <path id="Path_78203" data-name="Path 78203" d="M42.884,41.286l-17.053-.527.05-2,17.087.528Z" transform="translate(9.349 14.029)" fill="#9900e0"/>
      <rect id="Rectangle_21843" data-name="Rectangle 21843" width="1.723" height="8.001" transform="translate(47.409 31.779) rotate(-88.551)" fill="#83ffe7"/>
      <rect id="Rectangle_21844" data-name="Rectangle 21844" width="4.558" height="4.558" transform="matrix(0.025, -1, 1, 0.025, 24.86, 51.076)" fill="#9900e0"/>
      <rect id="Rectangle_21845" data-name="Rectangle 21845" width="3.537" height="3.538" transform="matrix(0.025, -1, 1, 0.025, 38.95, 28.74)" fill="#0f0f0f"/>
    </g>
  </g>
</svg>
