<?xml version="1.0" encoding="utf-8"?>
<!-- Generator: Adobe Illustrator 24.1.3, SVG Export Plug-In . SVG Version: 6.00 Build 0)  -->
<svg version="1.1" id="Layer_1" xmlns="http://www.w3.org/2000/svg" xmlns:xlink="http://www.w3.org/1999/xlink" x="0px" y="0px"
	 viewBox="0 0 236.4 74.4" style="enable-background:new 0 0 236.4 74.4;" xml:space="preserve">
<style type="text/css">
	.st0{fill:none;}
	.st1{fill:none;stroke:#9900E0;}
	.st2{fill:#06FFF8;}
	.st3{opacity:0.449;fill:none;stroke:#BA52EA;stroke-width:5;enable-background:new    ;}
	.st4{opacity:0.45;fill:none;stroke:#9900E0;stroke-width:5;enable-background:new    ;}
</style>
<g id="Group_21921" transform="translate(-606.92 -351.114)">
	<path id="Path_29235" class="st0" d="M824.4,362.9H626.2l-9.8,9.7v14.9l-7.5,5.7v22.3l9.2,7.4h205l11.1-10v-40.2L824.4,362.9z"/>
	<path id="Path_29236" class="st1" d="M669.9,353.7h-48.6l-12.4,12.1v12.9"/>
	<path id="Path_29237" class="st1" d="M754.2,362.6l5.1-6.5h68l13.4,13.6v32.7"/>
	<path id="Path_29238" class="st2" d="M636.5,362.9L616.4,383v-10.4l9.8-9.7L636.5,362.9z"/>
	<path id="Path_29240" class="st3" d="M754.2,362.6l5.1-6.5h68l13.4,13.6v32.7"/>
	<path id="Path_29241" class="st4" d="M824.4,362.9H626.2l-9.8,9.7v14.9l-7.5,5.7v22.3l9.2,7.4h216v-50.2L824.4,362.9z"/>
	<path id="Path_29242" class="st4" d="M669.9,353.7h-48.6l-12.4,12.1v12.9"/>
	<path id="Path_29249" class="st1" d="M824.4,362.9H626.2l-9.8,9.7v14.9l-7.5,5.7v22.3l9.2,7.4h216v-50.2L824.4,362.9z"/>
</g>
</svg>
