<svg id="Group_21203" data-name="Group 21203" xmlns="http://www.w3.org/2000/svg" xmlns:xlink="http://www.w3.org/1999/xlink" width="22.681" height="21.652" viewBox="0 0 22.681 21.652">
  <defs>
    <clipPath id="clip-path">
      <rect id="Rectangle_17236" data-name="Rectangle 17236" width="22.681" height="21.652" fill="#fff"/>
    </clipPath>
  </defs>
  <g id="Group_20916" data-name="Group 20916" clip-path="url(#clip-path)">
    <path id="Path_28835" data-name="Path 28835" d="M11.343,0c1.474,0,2.948-.013,4.422,0a6.988,6.988,0,0,1,6.551,4.773,6.807,6.807,0,0,1,.362,2.18q0,3.9,0,7.8a7,7,0,0,1-5.912,6.8,8.725,8.725,0,0,1-1.191.085q-4.251.011-8.5,0A6.974,6.974,0,0,1,.164,16.127,7.31,7.31,0,0,1,.009,14.6C-.007,12.1,0,9.6,0,7.1A6.994,6.994,0,0,1,7.092,0c1.417,0,2.834,0,4.251,0ZM11.326,20.1c1.438,0,2.877.005,4.315,0a5.758,5.758,0,0,0,1-.084,5.41,5.41,0,0,0,4.479-5.326q.025-3.856,0-7.712A5.42,5.42,0,0,0,15.66,1.561q-4.3,0-8.609,0a5.519,5.519,0,0,0-.956.074,5.431,5.431,0,0,0-4.539,5.41q-.008,3.8,0,7.605a5.224,5.224,0,0,0,.093,1,5.429,5.429,0,0,0,5.422,4.445h4.251" transform="translate(0 0)" fill="#fff"/>
    <path id="Path_28836" data-name="Path 28836" d="M125.943,120.194a6.223,6.223,0,1,1,6.212-6.187,6.222,6.222,0,0,1-6.212,6.187m4.662-6.159a4.676,4.676,0,1,0-4.892,4.605,4.7,4.7,0,0,0,4.892-4.605" transform="translate(-114.59 -103.144)" fill="#fff"/>
    <path id="Path_28837" data-name="Path 28837" d="M381.339,83.262a1.289,1.289,0,1,1-1.272-1.31,1.292,1.292,0,0,1,1.272,1.31" transform="translate(-362.579 -78.45)" fill="#fff"/>
  </g>
</svg>
