<?xml version="1.0" encoding="utf-8"?>
<!-- Generator: Adobe Illustrator 18.0.0, SVG Export Plug-In . SVG Version: 6.00 Build 0)  -->
<!DOCTYPE svg PUBLIC "-//W3C//DTD SVG 1.1//EN" "http://www.w3.org/Graphics/SVG/1.1/DTD/svg11.dtd">
<svg version="1.1" id="Layer_1" xmlns="http://www.w3.org/2000/svg" xmlns:xlink="http://www.w3.org/1999/xlink" x="0px" y="0px"
	 viewBox="0 0 22 21" enable-background="new 0 0 22 21" xml:space="preserve">
<path fill="#FFFFFF" d="M14.9,7.2c0,0.2,0,0.3,0,0.4c0,2.1,0,4.2,0,6.3c0,1.9-0.7,3.5-2.1,4.7c-1.8,1.6-4.7,2-6.9,0.8
	c-1.6-0.9-2.7-2.2-3.1-4c-0.5-2.1,0-3.9,1.4-5.5c1.3-1.5,3-2.1,4.9-2.1c0.6,0,0.6,0,0.6,0.6c0,0.9,0,1.8,0,2.7c0,0.3,0,0.3-0.3,0.2
	c-1.4-0.3-3,0.6-3.3,2.1c-0.3,1.5,0.6,3,2.1,3.3c1.9,0.3,3.2-1.1,3.2-2.7c0-3.3,0-6.6,0-10c0-0.9,0-1.9,0-2.8c0-0.3,0-0.3,0.3-0.3
	c1,0,1.9,0,2.9,0c0.2,0,0.3,0.1,0.3,0.3c0.2,2,1.2,3.3,3,4c0.4,0.2,0.8,0.2,1.3,0.2c0.2,0,0.3,0.1,0.2,0.3c0,1,0,1.9,0,2.9
	c0,0.2-0.1,0.2-0.3,0.2c-1.5-0.1-2.8-0.5-4-1.4C15.1,7.3,15,7.2,14.9,7.2z"/>
</svg>
