<svg xmlns="http://www.w3.org/2000/svg" width="22.681" height="15.256" viewBox="0 0 22.681 15.256">
  <path id="Path_29040" data-name="Path 29040" d="M3847.093,795.173c-2.512,0-5.024.038-7.535-.012-2.063-.041-2.839-.615-3.289-2.582a22.858,22.858,0,0,1,0-10.084c.41-1.86,1.183-2.524,3.058-2.542,5.231-.052,10.463,0,15.694.012a2.489,2.489,0,0,1,2.606,1.947,21.15,21.15,0,0,1-.011,11.275,2.583,2.583,0,0,1-2.737,1.965q-3.893,0-7.785,0Zm-2.814-3.41,7.023-4.22-7.023-4.223Z" transform="translate(-3835.705 -779.931)" fill="#fff"/>
</svg>
