<svg id="twitter" xmlns="http://www.w3.org/2000/svg" width="21.903" height="17.796" viewBox="0 0 21.903 17.796">
  <path id="Path_3" data-name="Path 3" d="M21.9,50.107a9.362,9.362,0,0,1-2.587.709,4.465,4.465,0,0,0,1.975-2.482,8.974,8.974,0,0,1-2.847,1.087,4.49,4.49,0,0,0-7.767,3.071,4.623,4.623,0,0,0,.1,1.024,12.71,12.71,0,0,1-9.255-4.7,4.491,4.491,0,0,0,1.38,6,4.434,4.434,0,0,1-2.029-.553v.049a4.511,4.511,0,0,0,3.6,4.412,4.482,4.482,0,0,1-1.177.148,3.972,3.972,0,0,1-.85-.077,4.533,4.533,0,0,0,4.2,3.128,9.022,9.022,0,0,1-5.567,1.915A8.408,8.408,0,0,1,0,63.781,12.641,12.641,0,0,0,6.888,65.8a12.692,12.692,0,0,0,12.78-12.778c0-.2-.007-.39-.016-.58A8.957,8.957,0,0,0,21.9,50.107Z" transform="translate(0 -48)" fill="#fff"/>
</svg>
