<svg id="Group_21202" data-name="Group 21202" xmlns="http://www.w3.org/2000/svg" xmlns:xlink="http://www.w3.org/1999/xlink" width="21.647" height="22.593" viewBox="0 0 21.647 22.593">
  <defs>
    <clipPath id="clip-path">
      <rect id="Rectangle_17235" data-name="Rectangle 17235" width="21.647" height="22.593" fill="#fff"/>
    </clipPath>
  </defs>
  <g id="Group_20914" data-name="Group 20914" clip-path="url(#clip-path)">
    <path id="Path_28834" data-name="Path 28834" d="M1.461,0H21.623c.007.073.02.145.02.217q0,6.663,0,13.325a.471.471,0,0,1-.149.367q-2.794,2.775-5.576,5.561a.562.562,0,0,1-.444.176c-1.316-.006-2.632,0-3.948-.007a.466.466,0,0,0-.366.15Q9.834,21.13,8.494,22.456a.425.425,0,0,1-.255.131c-.912.009-1.823.005-2.735,0a.645.645,0,0,1-.1-.022V19.643H0v-.258Q0,11.752,0,4.118a1.137,1.137,0,0,1,.069-.384Q.761,1.865,1.461,0M19.679,1.981H3.459V16.213H7.874V19.09l.073.052a1.252,1.252,0,0,1,.134-.2c.856-.859,1.718-1.713,2.571-2.576a.536.536,0,0,1,.423-.172q2.481.01,4.962,0a.537.537,0,0,0,.34-.141c1.047-1.033,2.082-2.076,3.127-3.111a.537.537,0,0,0,.179-.42q-.008-5.139,0-10.279Z" transform="translate(0)" fill="#fff"/>
    <rect id="Rectangle_17233" data-name="Rectangle 17233" width="1.951" height="5.872" transform="translate(14.271 5.904)" fill="#fff"/>
    <rect id="Rectangle_17234" data-name="Rectangle 17234" width="1.932" height="5.873" transform="translate(8.87 5.905)" fill="#fff"/>
  </g>
</svg>
