<svg id="Group_35387" data-name="Group 35387" xmlns="http://www.w3.org/2000/svg" xmlns:xlink="http://www.w3.org/1999/xlink" width="94.653" height="91.729" viewBox="0 0 94.653 91.729">
  <defs>
    <clipPath id="clip-path">
      <rect id="Rectangle_21546" data-name="Rectangle 21546" width="94.653" height="91.729" fill="none"/>
    </clipPath>
  </defs>
  <g id="Group_35387-2" data-name="Group 35387" clip-path="url(#clip-path)">
    <path id="Path_78205" data-name="Path 78205" d="M83.012,22.859a10.694,10.694,0,0,0-10.373-7.286c-1.05-.013-41.1-.021-42.17-.009a10.625,10.625,0,0,0-10.624,8.37,11.055,11.055,0,0,0-.265,2.474q-.014,21.17-.015,42.338A10.59,10.59,0,0,0,28.69,79.478a11.708,11.708,0,0,0,1.909.108H72.5a10.594,10.594,0,0,0,10.8-8.34c.082-.344.178-.687.261-1.031V25.026c-.178-.723-.321-1.46-.559-2.167M76.433,36.592a1.186,1.186,0,0,1-.082.275H26.739c-.016-.273-.043-.532-.044-.806V26.644a3.561,3.561,0,0,1,3.116-3.957c.288-.034,42.3-.013,43.673.067a3.3,3.3,0,0,1,2.926,3.239c.048,3.527.02,7.055.018,10.583" transform="translate(-5.864 -5.277)" fill="#991ce0"/>
    <path id="Path_78204" data-name="Path 78204" d="M83.012,22.859a10.694,10.694,0,0,0-10.373-7.286c-1.05-.013-41.1-.021-42.17-.009a10.625,10.625,0,0,0-10.624,8.37,11.055,11.055,0,0,0-.265,2.474q-.014,21.17-.015,42.338A10.59,10.59,0,0,0,28.69,79.478a11.708,11.708,0,0,0,1.909.108H72.5a10.594,10.594,0,0,0,10.8-8.34c.082-.344.178-.687.261-1.031V25.026c-.178-.723-.321-1.46-.559-2.167M76.433,36.592a1.186,1.186,0,0,1-.082.275H26.739c-.016-.273-.043-.532-.044-.806V26.644a3.561,3.561,0,0,1,3.116-3.957c.288-.034,42.3-.013,43.673.067a3.3,3.3,0,0,1,2.926,3.239c.048,3.527.02,7.055.018,10.583" transform="translate(0.136 -0.277)" fill="#0cfff8"/>
    <path id="Path_77665" data-name="Path 77665" d="M83.012,22.859a10.694,10.694,0,0,0-10.373-7.286c-1.05-.013-41.1-.021-42.17-.009a10.625,10.625,0,0,0-10.624,8.37,11.055,11.055,0,0,0-.265,2.474q-.014,21.17-.015,42.338A10.59,10.59,0,0,0,28.69,79.478a11.708,11.708,0,0,0,1.909.108H72.5a10.594,10.594,0,0,0,10.8-8.34c.082-.344.178-.687.261-1.031V25.026c-.178-.723-.321-1.46-.559-2.167M76.433,36.592a1.186,1.186,0,0,1-.082.275H26.739c-.016-.273-.043-.532-.044-.806V26.644a3.561,3.561,0,0,1,3.116-3.957c.288-.034,42.3-.013,43.673.067a3.3,3.3,0,0,1,2.926,3.239c.048,3.527.02,7.055.018,10.583" transform="translate(-2.864 -2.278)" fill="#83ffe7" stroke="#000" stroke-width="1.5"/>
    <rect id="Rectangle_21511" data-name="Rectangle 21511" width="7.092" height="21.28" transform="translate(31.069 6.187)" fill="#9900e0"/>
    <rect id="Rectangle_21512" data-name="Rectangle 21512" width="7.092" height="21.28" transform="translate(59.556 6.187)" fill="#9900e0"/>
    <rect id="Rectangle_21513" data-name="Rectangle 21513" width="15.887" height="15.887" transform="translate(23.83 44.855)" fill="#0f0f0f"/>
    <rect id="Rectangle_21514" data-name="Rectangle 21514" width="6.864" height="9.575" transform="matrix(0.025, -1, 1, 0.025, 52.589, 65.897)" fill="#0f0f0f"/>
    <rect id="Rectangle_21515" data-name="Rectangle 21515" width="6.867" height="2.702" transform="matrix(0.024, -1, 1, 0.024, 63.939, 66.267)" fill="#0f0f0f"/>
    <rect id="Rectangle_21516" data-name="Rectangle 21516" width="3.215" height="3.215" transform="translate(64.83 45.027) rotate(-88.555)" fill="#83ffe7"/>
    <rect id="Rectangle_21517" data-name="Rectangle 21517" width="1.894" height="5.833" transform="translate(47.952 51.456) rotate(-88.58)" fill="#0f0f0f"/>
    <rect id="Rectangle_21518" data-name="Rectangle 21518" width="5.442" height="5.445" transform="matrix(0.025, -1, 1, 0.025, 56.669, 68.014)" fill="#83ffe7"/>
    <path id="Path_77666" data-name="Path 77666" d="M14.778,8.852c.282.067.282.067.609.168.509-.312.509-.312,1.026-.616-.271-.067-.271-.067-.505-.118-.371.178-.763.375-1.129.566" transform="translate(-2.164 -1.213)" fill="#9900e0"/>
    <path id="Path_77667" data-name="Path 77667" d="M14.935,8.878c.218.062.218.062.469.141.51-.314.51-.314,1.028-.617a3.953,3.953,0,0,0-.476-.116c-.535.3-.535.3-1.021.592" transform="translate(-2.187 -1.213)" fill="#9900e0"/>
    <path id="Path_77668" data-name="Path 77668" d="M22.283,21.132l1,1.006-1.249,1.1c-.5-.518-.5-.518-.988-1.024.605-.535.605-.535,1.232-1.082" transform="translate(-3.082 -3.094)" fill="#9900e0"/>
    <path id="Path_77669" data-name="Path 77669" d="M30.583,16.353c.589.527.589.527,1.175,1.07.592-.458.592-.458,1.162-.907-.582-.524-.582-.524-1.176-1.041l-1.16.882" transform="translate(-4.478 -2.266)" fill="#9900e0"/>
    <rect id="Rectangle_21519" data-name="Rectangle 21519" width="2.369" height="2.369" transform="translate(11.677 15.224) rotate(-88.575)" fill="#83ffe7"/>
    <path id="Path_77670" data-name="Path 77670" d="M21.673,51.4,2.912,50.927l.148-5.906,18.8.471Z" transform="translate(-0.426 -6.592)" fill="#9900e0"/>
    <path id="Path_77671" data-name="Path 77671" d="M4.89,34.933l16.6.416-3.212,3.83L4.77,38.84Z" transform="translate(-0.698 -5.115)" fill="#0f0f0f"/>
    <path id="Path_77672" data-name="Path 77672" d="M5.412,80.7l28.392.714-.114,4.561-28.5-.714Z" transform="translate(-0.76 -11.816)" fill="#0f0f0f"/>
    <path id="Path_77673" data-name="Path 77673" d="M24.24,43.883c.023.018.023.018.032.057.385-.463.385-.463.778-.919-.023-.054-.023-.054-.043-.107q-.391.48-.767.969" transform="translate(-3.549 -6.283)" fill="#9900e0"/>
    <rect id="Rectangle_21520" data-name="Rectangle 21520" width="5.363" height="7.482" transform="matrix(0.025, -1, 1, 0.025, 3.5, 57.579)" fill="#0f0f0f"/>
    <rect id="Rectangle_21521" data-name="Rectangle 21521" width="4.073" height="4.073" transform="translate(5.774 66.186) rotate(-88.571)" fill="#83ffe7"/>
    <rect id="Rectangle_21522" data-name="Rectangle 21522" width="5.363" height="2.109" transform="translate(0 57.557) rotate(-88.541)" fill="#0f0f0f"/>
    <rect id="Rectangle_21523" data-name="Rectangle 21523" width="2.511" height="2.511" transform="translate(5.557 17.018) rotate(-88.578)" fill="#83ffe7"/>
    <rect id="Rectangle_21524" data-name="Rectangle 21524" width="1.478" height="4.558" transform="translate(16.44 22.649) rotate(-88.577)" fill="#0f0f0f"/>
    <rect id="Rectangle_21525" data-name="Rectangle 21525" width="5.972" height="5.972" transform="translate(31.555 80.229) rotate(-88.567)" fill="#9900e0"/>
    <rect id="Rectangle_21526" data-name="Rectangle 21526" width="3.25" height="11.751" transform="translate(14.175 67.236) rotate(-88.57)" fill="#83ffe7"/>
    <path id="Path_77674" data-name="Path 77674" d="M93,91.1l-21.851-.546,4.229-4.931,17.783.446Z" transform="translate(-10.417 -12.537)" fill="#0f0f0f"/>
    <rect id="Rectangle_21527" data-name="Rectangle 21527" width="3.721" height="3.721" transform="translate(90.84 54.888) rotate(-88.567)" fill="#0f0f0f"/>
    <rect id="Rectangle_21528" data-name="Rectangle 21528" width="5.972" height="5.972" transform="translate(75.177 69.842) rotate(-88.567)" fill="#9900e0"/>
    <rect id="Rectangle_21529" data-name="Rectangle 21529" width="3.719" height="3.719" transform="matrix(0.025, -1, 1, 0.025, 80.881, 28.526)" fill="#0f0f0f"/>
    <rect id="Rectangle_21530" data-name="Rectangle 21530" width="3.239" height="3.24" transform="translate(83.135 62.223) rotate(-88.565)" fill="#83ffe7"/>
    <rect id="Rectangle_21531" data-name="Rectangle 21531" width="4.043" height="18.765" transform="translate(68.807 42.529) rotate(-88.572)" fill="#83ffe7"/>
    <path id="Path_77675" data-name="Path 77675" d="M84.108,21.918,97.4,22.25l.066-2.66-13.323-.334Z" transform="translate(-12.315 -2.82)" fill="#9900e0"/>
    <path id="Path_77676" data-name="Path 77676" d="M100.447,59.564l-16.612-.416.121-4.867L100.6,54.7Z" transform="translate(-12.275 -7.948)" fill="#0f0f0f"/>
    <rect id="Rectangle_21532" data-name="Rectangle 21532" width="2.258" height="10.485" transform="translate(54.978 35.051) rotate(-88.57)" fill="#83ffe7"/>
    <rect id="Rectangle_21533" data-name="Rectangle 21533" width="1.124" height="1.126" transform="translate(55.403 37.01) rotate(-88.565)" fill="#0f0f0f"/>
    <rect id="Rectangle_21534" data-name="Rectangle 21534" width="2.786" height="2.547" transform="translate(58.841 43.264) rotate(-88.561)" fill="#0f0f0f"/>
    <rect id="Rectangle_21535" data-name="Rectangle 21535" width="3.528" height="3.528" transform="translate(54.331 41.852) rotate(-88.572)" fill="#0f0f0f"/>
    <rect id="Rectangle_21536" data-name="Rectangle 21536" width="1.624" height="1.624" transform="translate(54.284 43.71) rotate(-88.554)" fill="#9900e0"/>
    <path id="Path_77677" data-name="Path 77677" d="M75.116,36.673l.493-.178a.959.959,0,0,1,.147.025c-.213.055-.425.109-.639.16" transform="translate(-10.998 -5.343)" fill="#83ffe7"/>
    <rect id="Rectangle_21537" data-name="Rectangle 21537" width="4.116" height="4.114" transform="translate(45.198 42.936) rotate(-88.586)" fill="#9900e0"/>
    <rect id="Rectangle_21538" data-name="Rectangle 21538" width="1.893" height="1.894" transform="translate(52.257 30.153) rotate(-88.554)" fill="#9900e0"/>
    <rect id="Rectangle_21539" data-name="Rectangle 21539" width="1.478" height="1.478" transform="matrix(0.025, -1, 1, 0.025, 55.48, 1.477)" fill="#0f0f0f"/>
    <rect id="Rectangle_21540" data-name="Rectangle 21540" width="3.667" height="3.349" transform="translate(48.689 9.418) rotate(-88.573)" fill="#0f0f0f"/>
    <rect id="Rectangle_21541" data-name="Rectangle 21541" width="4.635" height="4.636" transform="matrix(0.025, -1, 1, 0.025, 53.416, 7.829)" fill="#0f0f0f"/>
    <rect id="Rectangle_21542" data-name="Rectangle 21542" width="2.135" height="2.133" transform="translate(55.853 10.331) rotate(-88.557)" fill="#9900e0"/>
    <rect id="Rectangle_21543" data-name="Rectangle 21543" width="4.919" height="4.919" transform="translate(70.691 11.447) rotate(-88.568)" fill="#9900e0"/>
    <path id="Path_77678" data-name="Path 77678" d="M52.527,92.557l12.642.318.092-3.705-12.671-.316Z" transform="translate(-7.691 -13.01)" fill="#0f0f0f"/>
    <path id="Path_77679" data-name="Path 77679" d="M40.552,106.741l17.007.325.05-1.989-17.04-.326Z" transform="translate(-5.938 -15.337)" fill="#9900e0"/>
    <rect id="Rectangle_21544" data-name="Rectangle 21544" width="2.831" height="2.831" transform="translate(39.857 81.863) rotate(-88.548)" fill="#0f0f0f"/>
    <rect id="Rectangle_21545" data-name="Rectangle 21545" width="2.463" height="2.463" transform="matrix(0.025, -1, 1, 0.025, 45.796, 87.736)" fill="#83ffe7"/>
  </g>
</svg>
